<?xml version="1.0" encoding="UTF-8"?>
<svg width="46px" height="46px" viewBox="0 0 46 46" version="1.1" xmlns="http://www.w3.org/2000/svg" xmlns:xlink="http://www.w3.org/1999/xlink">
    <!-- Generator: Sketch 51.2 (57519) - http://www.bohemiancoding.com/sketch -->
    <title>Group</title>
    <desc>Created with Sketch.</desc>
    <defs>
        <polygon id="path-1" points="0.221394737 0.4715 25.7307105 0.4715 25.7307105 45.999425 0.221394737 45.999425"></polygon>
        <polygon id="path-3" points="0 0.82026 3.58606667 0.82026 3.58606667 13.35516 0 13.35516"></polygon>
    </defs>
    <g id="Welcome" stroke="none" stroke-width="1" fill="none" fill-rule="evenodd">
        <g id="Main-page" transform="translate(-1176.000000, -6498.000000)">
            <g id="Меню-услуг-5" transform="translate(250.000000, 6470.000000)">
                <g id="Group" transform="translate(926.000000, 28.000000)">
                    <g id="Group-3" transform="translate(10.000000, 0.000000)">
                        <mask id="mask-2" fill="white">
                            <use xlink:href="#path-1"></use>
                        </mask>
                        <g id="Clip-2"></g>
                        <path d="M24.2286579,5.024925 L1.72486842,5.024925 L1.72486842,3.8131125 C1.72486842,2.8097375 2.53344737,1.9903625 3.53102632,1.9903625 L22.4225,1.9903625 C23.4200789,1.9903625 24.2286579,2.8097375 24.2286579,3.8131125 L24.2286579,5.024925 Z M1.72486842,35.3777375 L24.2286579,35.3777375 L24.2286579,6.5386125 L1.72486842,6.5386125 L1.72486842,35.3777375 Z M24.2286579,42.658675 C24.2286579,43.66205 23.4200789,44.481425 22.4225,44.481425 L3.53102632,44.481425 C2.53344737,44.481425 1.72486842,43.66205 1.72486842,42.658675 L1.72486842,36.8928625 L24.2286579,36.8928625 L24.2286579,42.658675 Z M22.4225,0.470925 L3.53102632,0.470925 C1.70497368,0.470925 0.221394737,1.971675 0.221394737,3.8131125 L0.221394737,42.658675 C0.221394737,44.498675 1.70497368,45.999425 3.53102632,45.999425 L22.4225,45.999425 C24.2471316,45.999425 25.7307105,44.498675 25.7307105,42.658675 L25.7307105,3.8131125 C25.7307105,1.971675 24.2471316,0.470925 22.4225,0.470925 Z" id="Fill-1" fill="#858585" mask="url(#mask-2)"></path>
                    </g>
                    <path d="M23.0007107,38.5010651 C23.8280028,38.5010651 24.5031983,39.1742012 24.5031983,39.9978698 C24.5031983,40.8243787 23.8280028,41.4989349 23.0007107,41.4989349 C22.1719972,41.4989349 21.4968017,40.8243787 21.4968017,39.9978698 C21.4968017,39.1742012 22.1719972,38.5010651 23.0007107,38.5010651 M23.0007107,43 C24.6567164,43 26,41.6523077 26,39.9978698 C26,38.3476923 24.6567164,37 23.0007107,37 C21.3432836,37 20,38.3476923 20,39.9978698 C20,41.6523077 21.3432836,43 23.0007107,43" id="Fill-4" fill="#858585"></path>
                    <path d="M23.1666667,3 L19.8349116,3 C19.3756313,3 19,3.44843898 19,4.00094607 C19,4.55156102 19.3756313,5 19.8349116,5 L23.1666667,5 C23.625947,5 24,4.55156102 24,4.00094607 C24,3.44843898 23.625947,3 23.1666667,3" id="Fill-6" fill="#858585"></path>
                    <path d="M25.3324905,3 L24.664981,3 C24.2970923,3 24,3.44843898 24,4.00094607 C24,4.55156102 24.2970923,5 24.664981,5 L25.3324905,5 C25.7016435,5 26,4.55156102 26,4.00094607 C26,3.44843898 25.7016435,3 25.3324905,3" id="Fill-8" fill="#858585"></path>
                    <path d="M43.3402752,4.22432568 C43.0338416,3.92522477 42.5399777,3.92522477 42.2320565,4.22432568 C41.9226478,4.52487854 41.9226478,5.00692467 42.2320565,5.30602558 C45.165489,8.16926342 45.165489,12.8285587 42.2320565,15.6947004 C41.9226478,15.9938013 41.9226478,16.4772994 42.2320565,16.7778522 C42.3808107,16.9259507 42.5846039,17 42.7854221,17 C42.9892153,17 43.1870584,16.9259507 43.3402752,16.7778522 C46.8865749,13.3178645 46.8865749,7.68721729 43.3402752,4.22432568" id="Fill-10" fill="#858585"></path>
                    <path d="M39.2163256,5.23174236 C38.9383854,4.92275255 38.4863953,4.92275255 38.2084551,5.23174236 C37.930515,5.53923947 37.930515,6.03631003 38.2084551,6.34231444 C39.0868001,7.32003582 39.5752192,8.61719595 39.5752192,10.0024256 C39.5752192,11.3831772 39.0868001,12.6803374 38.2084551,13.6535806 C37.930515,13.9610777 37.930515,14.4611337 38.2084551,14.7686308 C38.346076,14.9223794 38.5309197,15 38.7117158,15 C38.893861,15 39.0773555,14.9223794 39.2163256,14.7686308 C40.3645154,13.495354 41,11.8026272 41,10.0024256 C41,8.19774602 40.3685631,6.50203381 39.2163256,5.23174236" id="Fill-12" fill="#858585"></path>
                    <g id="Group-16" transform="translate(0.000000, 3.000000)">
                        <mask id="mask-4" fill="white">
                            <use xlink:href="#path-3"></use>
                        </mask>
                        <g id="Clip-15"></g>
                        <path d="M3.37706667,2.07956 C3.65573333,1.79116 3.65573333,1.32496 3.37706667,1.03656 C3.1024,0.74816 2.6584,0.74816 2.38373333,1.03656 C-0.794933333,4.37556 -0.794933333,9.80196 2.38373333,13.13956 C2.52106667,13.28376 2.69973333,13.35516 2.8824,13.35516 C3.06106667,13.35516 3.24373333,13.28376 3.37706667,13.13956 C3.65573333,12.85116 3.65573333,12.38496 3.37706667,12.09656 C0.747733333,9.33716 0.747733333,4.84316 3.37706667,2.07956" id="Fill-14" fill="#858585" mask="url(#mask-4)"></path>
                    </g>
                    <path d="M6.79163857,5.23174236 C6.51247471,4.92275255 6.06203641,4.92275255 5.78287256,5.23174236 C4.63654754,6.50651192 4,8.19923872 4,10.0024256 C4,11.8041199 4.63654754,13.4998321 5.78287256,14.7701235 C5.92178018,14.9238721 6.1065408,15 6.28860418,15 C6.46931895,15 6.65138233,14.9238721 6.79163857,14.7701235 C7.06945381,14.4626264 7.06945381,13.9655558 6.79163857,13.6580587 C5.91233985,12.6848155 5.42548887,11.3846699 5.42548887,10.0024256 C5.42548887,8.62167407 5.90964262,7.32152853 6.79163857,6.34828526 C7.06945381,6.04078815 7.06945381,5.53923947 6.79163857,5.23174236" id="Fill-17" fill="#858585"></path>
                </g>
            </g>
        </g>
    </g>
</svg>