<?xml version="1.0" encoding="UTF-8"?>
<svg width="17px" height="17px" viewBox="0 0 17 17" version="1.1" xmlns="http://www.w3.org/2000/svg" xmlns:xlink="http://www.w3.org/1999/xlink">
    <!-- Generator: Sketch 51.2 (57519) - http://www.bohemiancoding.com/sketch -->
    <title>Group 2</title>
    <desc>Created with Sketch.</desc>
    <defs>
        <polygon id="path-1" points="0.4139 0.711 16.7039 0.711 16.7039 16.9996 0.4139 16.9996"></polygon>
    </defs>
    <g id="Welcome" stroke="none" stroke-width="1" fill="none" fill-rule="evenodd">
        <g id="Main-page" transform="translate(-302.000000, -511.000000)">
            <g id="Старт-страница" transform="translate(-3.000000, 0.000000)">
                <g id="Соц-сети-иконки" transform="translate(255.000000, 510.000000)">
                    <g id="Group-2" transform="translate(50.000000, 0.000000)">
                        <g id="Group-5" transform="translate(0.000000, 0.289400)">
                            <mask id="mask-2" fill="white">
                                <use xlink:href="#path-1"></use>
                            </mask>
                            <g id="Clip-4"></g>
                            <path d="M15.2589,12.5046 C15.2589,14.1866 13.8909,15.5546 12.2079,15.5546 L4.9089,15.5546 C3.2279,15.5546 1.8599,14.1866 1.8599,12.5046 L1.8599,5.2056 C1.8599,3.5236 3.2279,2.1556 4.9089,2.1556 L12.2079,2.1556 C13.8909,2.1556 15.2589,3.5236 15.2589,5.2056 L15.2589,12.5046 Z M12.2079,0.7106 L4.9089,0.7106 C2.4309,0.7106 0.4139,2.7266 0.4139,5.2056 L0.4139,12.5046 C0.4139,14.9836 2.4309,16.9996 4.9089,16.9996 L12.2079,16.9996 C14.6879,16.9996 16.7039,14.9836 16.7039,12.5046 L16.7039,5.2056 C16.7039,2.7266 14.6879,0.7106 12.2079,0.7106 Z" id="Fill-3" fill="#FFFFFF" mask="url(#mask-2)"></path>
                        </g>
                        <path d="M8.5587,11.8963 C7.0417,11.8963 5.8067,10.6623 5.8067,9.1443 C5.8067,7.6273 7.0407,6.3923 8.5587,6.3923 C10.0777,6.3923 11.3117,7.6273 11.3117,9.1443 C11.3117,10.6623 10.0767,11.8963 8.5587,11.8963 M8.5587,4.9473 C6.2447,4.9473 4.3617,6.8303 4.3617,9.1443 C4.3617,11.4593 6.2447,13.3423 8.5587,13.3423 C10.8727,13.3423 12.7567,11.4593 12.7567,9.1443 C12.7567,6.8303 10.8727,4.9473 8.5587,4.9473" id="Fill-6" fill="#FFFFFF"></path>
                        <path d="M12.9327,3.722 C12.6547,3.722 12.3807,3.835 12.1837,4.032 C11.9857,4.229 11.8717,4.503 11.8717,4.782 C11.8717,5.061 11.9867,5.334 12.1837,5.531 C12.3797,5.728 12.6547,5.842 12.9327,5.842 C13.2117,5.842 13.4847,5.728 13.6817,5.531 C13.8797,5.334 13.9927,5.06 13.9927,4.782 C13.9927,4.503 13.8797,4.229 13.6817,4.032 C13.4857,3.835 13.2117,3.722 12.9327,3.722" id="Fill-8" fill="#FFFFFF"></path>
                    </g>
                </g>
            </g>
        </g>
    </g>
</svg>