<?xml version="1.0" encoding="UTF-8"?>
<svg width="67px" height="127px" viewBox="0 0 67 127" version="1.1" xmlns="http://www.w3.org/2000/svg" xmlns:xlink="http://www.w3.org/1999/xlink">
    <!-- Generator: Sketch 51.2 (57519) - http://www.bohemiancoding.com/sketch -->
    <title>Group</title>
    <desc>Created with Sketch.</desc>
    <defs></defs>
    <g id="Welcome" stroke="none" stroke-width="1" fill="none" fill-rule="evenodd">
        <g id="Main-page" transform="translate(-183.000000, 0.000000)">
            <g id="Head">
                <g id="Group" transform="translate(183.000000, 0.000000)">
                    <polygon id="Fill-1" fill="#9B9B9B" points="0 104.228 66.246 104.228 66.246 60.522 0 60.522"></polygon>
                    <polygon id="Fill-2" fill="#000000" points="0 60.521 66.246 60.521 66.246 -1.42108547e-14 0 -1.42108547e-14"></polygon>
                    <polygon id="Fill-3" fill="#000000" points="0 126.091 66.246 126.091 66.246 104.228 0 104.228"></polygon>
                    <g id="Group-8" transform="translate(5.000000, 4.091000)">
                        <path d="M12.6424,26.1342 L10.2264,21.9492 L24.4344,21.9492 L23.8314,20.9052 L9.6224,20.9052 L7.2064,16.7192 L21.3934,16.7192 L20.7894,15.6752 L6.6044,15.6752 L4.1874,11.4902 L22.8794,11.4902 L29.2384,22.5032 C27.5644,22.5612 26.2204,23.9402 26.2204,25.6282 C26.2204,25.8002 26.2354,25.9692 26.2624,26.1342 L12.6424,26.1342 Z M19.8454,27.1782 L26.6334,27.1782 C27.0904,27.9752 27.8874,28.5532 28.8274,28.7112 L28.8274,33.0222 L29.7564,34.6322 L27.5984,38.3692 L25.1724,34.1662 L19.5604,34.1662 L20.0914,35.2102 L24.5694,35.2102 L27.6514,40.5472 L24.3774,46.2162 L21.3934,46.2162 L21.3934,47.2602 L30.7834,47.2602 L32.5394,50.3032 L30.8594,50.3032 L29.8964,48.6342 L28.6904,48.6342 L29.6544,50.3032 L28.0704,50.3032 L27.1064,48.6342 L25.9004,48.6342 L26.8644,50.3032 L13.3854,50.3032 L19.4364,39.8242 L18.2304,39.8242 L12.1804,50.3032 L8.7924,50.3032 L7.6434,48.3132 L19.8454,27.1782 Z M27.2644,25.6282 C27.2644,24.4792 28.2004,23.5442 29.3484,23.5442 C30.4974,23.5442 31.4324,24.4792 31.4324,25.6282 C31.4324,26.7772 30.4974,27.7122 29.3484,27.7122 C28.2004,27.7122 27.2644,26.7772 27.2644,25.6282 Z M29.8714,32.7422 L29.8714,28.7112 C31.3474,28.4622 32.4764,27.1752 32.4764,25.6282 C32.4764,24.3442 31.6994,23.2392 30.5904,22.7572 L26.4944,15.6622 L33.1614,4.1162 L34.6894,4.1162 L33.8784,5.5182 L35.0844,5.5182 L36.8034,2.5412 L37.7124,4.1162 L41.7254,4.1162 L43.8504,7.7952 L47.5284,7.7952 L45.9024,10.6132 C45.2884,9.6712 44.1954,9.1132 43.0104,9.2132 C41.4924,9.3432 40.2684,10.5882 40.1634,12.1092 C40.1034,12.9872 40.3994,13.8232 40.9964,14.4642 C41.5464,15.0532 42.3094,15.4082 43.1104,15.4532 L41.7004,17.8962 L40.0584,15.0532 L35.4144,15.0532 L38.2804,20.0172 L38.2804,30.8042 L35.9084,34.9122 L43.0374,47.2602 L45.5144,47.2602 L47.2714,50.3032 L45.6784,50.3032 L44.7144,48.6342 L43.5094,48.6342 L44.4724,50.3032 L42.8884,50.3032 L41.9254,48.6342 L40.7194,48.6342 L41.6834,50.3032 L40.0094,50.3032 L29.8714,32.7422 Z M37.4144,34.3902 L44.8084,21.5892 L51.5214,21.5892 L49.5174,25.0562 L46.7884,25.0562 L41.4014,34.3902 L37.4144,34.3902 Z M12.3624,27.1782 L18.6394,27.1782 L6.5914,48.0472 C6.4964,48.2092 6.4964,48.4162 6.5934,48.5822 L8.0374,51.0822 C8.1274,51.2432 8.3054,51.3472 8.4964,51.3472 L34.3484,51.3472 L31.3854,46.2162 L25.5834,46.2162 L28.8564,40.5472 L28.2024,39.4132 L30.3594,35.6762 L39.4074,51.3472 L49.0804,51.3472 L46.1184,46.2162 L43.6404,46.2162 L37.4144,35.4342 L42.0044,35.4342 L47.3914,26.1012 L50.1204,26.1012 L53.3304,20.5442 L44.2054,20.5442 L39.3254,28.9962 L39.3254,19.7372 L37.2234,16.0982 L39.4554,16.0982 L41.2404,19.1892 C41.3344,19.3522 41.5104,19.4542 41.6994,19.4542 C41.8884,19.4542 42.0644,19.3522 42.1594,19.1892 L45.0994,14.0962 C45.1384,14.0272 45.0734,13.9462 44.9974,13.9702 L43.9244,14.3142 C43.9114,14.3182 43.8974,14.3222 43.8844,14.3262 C43.6004,14.4112 43.3024,14.4342 43.0024,14.3952 C42.6264,14.3462 42.2674,14.1922 41.9744,13.9522 C41.4334,13.5082 41.1584,12.8642 41.2044,12.1812 C41.2754,11.1682 42.0894,10.3402 43.0994,10.2542 C44.1304,10.1662 45.0594,10.8272 45.3064,11.8272 C45.3124,11.8482 45.3224,11.8922 45.3224,11.8922 L45.5564,12.9682 C45.5754,13.0532 45.6894,13.0712 45.7334,12.9952 L48.8674,7.5652 C49.0054,7.3242 48.9454,7.0022 48.6874,6.8342 C48.5984,6.7772 48.4924,6.7512 48.3854,6.7512 L44.4534,6.7512 L42.3294,3.0712 L38.3154,3.0712 L37.2704,1.2602 C37.1744,1.0952 36.9964,0.9912 36.8034,0.9912 C36.6114,0.9912 36.4324,1.0952 36.3364,1.2622 L35.2914,3.0712 L32.5574,3.0712 L25.8914,14.6182 L23.6474,10.7312 C23.5454,10.5552 23.3564,10.4462 23.1534,10.4462 L3.3964,10.4462 C3.2824,10.4462 3.1684,10.4732 3.0744,10.5352 C2.7974,10.7142 2.7334,11.0592 2.8814,11.3162 L11.8784,26.8992 C11.9784,27.0712 12.1634,27.1782 12.3624,27.1782 Z" id="Fill-4" fill="#D2D4D8"></path>
                        <path d="M56.0847,71.4435 L49.8467,71.4435 C49.7507,71.0415 49.6977,70.6325 49.5567,70.2575 C48.9927,68.7545 47.7067,67.8825 46.0287,67.8815 C34.0847,67.8755 22.1407,67.8745 10.1957,67.8825 C8.1267,67.8845 6.5097,69.4775 6.5037,71.4595 C6.4977,73.4765 8.1157,75.0635 10.2337,75.0645 C22.0407,75.0725 33.8477,75.0765 45.6537,75.0635 C48.8667,75.0605 51.6137,76.1215 53.6927,78.5995 C56.2027,81.5915 56.8547,84.9975 55.4017,88.6425 C53.9407,92.3095 51.1647,94.4265 47.2277,94.9595 C46.7517,95.0245 46.2657,95.0355 45.7837,95.0365 C34.0007,95.0395 22.2167,95.0045 10.4337,95.0555 C5.2407,95.0775 1.3117,91.4985 0.3597,87.0245 C0.2287,86.4035 0.1937,85.7615 0.1077,85.0735 L6.2577,85.0735 C6.6517,85.8745 6.9237,86.6355 7.3657,87.2775 C8.0497,88.2675 9.0827,88.6915 10.2827,88.6915 C22.1817,88.6915 34.0797,88.6965 45.9787,88.6855 C47.8807,88.6835 49.3377,87.4925 49.7127,85.7265 C50.0377,84.1945 49.1637,82.4645 47.5937,81.7965 C46.9627,81.5275 46.2147,81.4355 45.5207,81.4345 C33.8277,81.4135 22.1367,81.4095 10.4447,81.4265 C6.9677,81.4315 4.0937,80.1785 2.0757,77.3365 C-0.2273,74.0915 -0.5473,70.5645 1.2487,66.9895 C3.0077,63.4875 5.9587,61.5835 9.8657,61.5615 C22.0627,61.4925 34.2597,61.5035 46.4557,61.5545 C51.3557,61.5745 55.6107,65.6075 56.0807,70.4755 C56.1087,70.7705 56.0847,71.0705 56.0847,71.4435" id="Fill-6" fill="#000000"></path>
                    </g>
                    <text id="SMART" font-family="Affect-Bold, Affect" font-size="7.9469" font-weight="bold" letter-spacing="0.33097164" fill="#D2D4D8">
                        <tspan x="9.35980822" y="111.637784">S</tspan>
                        <tspan x="14.1728315" y="111.637784" letter-spacing="0.207">MA</tspan>
                        <tspan x="25.7681198" y="111.637784" letter-spacing="0.23560884">R</tspan>
                        <tspan x="30.5652492" y="111.637784" letter-spacing="0.207">T</tspan>
                    </text>
                    <text id="SECURITY" font-family="Affect-Bold, Affect" font-size="7.9469" font-weight="bold" letter-spacing="0.33097164" fill="#D2D4D8">
                        <tspan x="9.70664166" y="119.052242">S</tspan>
                        <tspan x="14.5196649" y="119.052242" letter-spacing="0.207">E</tspan>
                        <tspan x="18.9464688" y="119.052242" letter-spacing="0.24752919">C</tspan>
                        <tspan x="23.9462442" y="119.052242" letter-spacing="0.34527606">U</tspan>
                        <tspan x="29.1311824" y="119.052242" letter-spacing="0.30633625">R</tspan>
                        <tspan x="34.0785082" y="119.052242" letter-spacing="0.25388671">I</tspan>
                        <tspan x="36.2078633" y="119.052242" letter-spacing="0.35083889">T</tspan>
                        <tspan x="40.706984" y="119.052242" letter-spacing="0.207">Y</tspan>
                    </text>
                </g>
            </g>
        </g>
    </g>
</svg>