<?xml version="1.0" encoding="UTF-8"?>
<svg width="67px" height="127px" viewBox="0 0 67 127" version="1.1" xmlns="http://www.w3.org/2000/svg" xmlns:xlink="http://www.w3.org/1999/xlink">
    <!-- Generator: Sketch 51.2 (57519) - http://www.bohemiancoding.com/sketch -->
    <title>Group</title>
    <desc>Created with Sketch.</desc>
    <defs></defs>
    <g id="Welcome" stroke="none" stroke-width="1" fill="none" fill-rule="evenodd">
        <g id="Main-page" transform="translate(-183.000000, 0.000000)">
            <g id="Head">
                <g id="Group" transform="translate(183.000000, 0.000000)">
                    <polygon id="Fill-1" fill="#9B9B9B" points="0 104.228 66.246 104.228 66.246 60.522 0 60.522"></polygon>
                    <polygon id="Fill-2" fill="#000000" points="0 60.521 66.246 60.521 66.246 -1.42108547e-14 0 -1.42108547e-14"></polygon>
                    <polygon id="Fill-3" fill="#000000" points="0 126.091 66.246 126.091 66.246 104.228 0 104.228"></polygon>
                    <g id="Group-8" transform="translate(5.000000, 4.091000)">
                        <path d="M12.6424,26.1342 L10.2264,21.9492 L24.4344,21.9492 L23.8314,20.9052 L9.6224,20.9052 L7.2064,16.7192 L21.3934,16.7192 L20.7894,15.6752 L6.6044,15.6752 L4.1874,11.4902 L22.8794,11.4902 L29.2384,22.5032 C27.5644,22.5612 26.2204,23.9402 26.2204,25.6282 C26.2204,25.8002 26.2354,25.9692 26.2624,26.1342 L12.6424,26.1342 Z M19.8454,27.1782 L26.6334,27.1782 C27.0904,27.9752 27.8874,28.5532 28.8274,28.7112 L28.8274,33.0222 L29.7564,34.6322 L27.5984,38.3692 L25.1724,34.1662 L19.5604,34.1662 L20.0914,35.2102 L24.5694,35.2102 L27.6514,40.5472 L24.3774,46.2162 L21.3934,46.2162 L21.3934,47.2602 L30.7834,47.2602 L32.5394,50.3032 L30.8594,50.3032 L29.8964,48.6342 L28.6904,48.6342 L29.6544,50.3032 L28.0704,50.3032 L27.1064,48.6342 L25.9004,48.6342 L26.8644,50.3032 L13.3854,50.3032 L19.4364,39.8242 L18.2304,39.8242 L12.1804,50.3032 L8.7924,50.3032 L7.6434,48.3132 L19.8454,27.1782 Z M27.2644,25.6282 C27.2644,24.4792 28.2004,23.5442 29.3484,23.5442 C30.4974,23.5442 31.4324,24.4792 31.4324,25.6282 C31.4324,26.7772 30.4974,27.7122 29.3484,27.7122 C28.2004,27.7122 27.2644,26.7772 27.2644,25.6282 Z M29.8714,32.7422 L29.8714,28.7112 C31.3474,28.4622 32.4764,27.1752 32.4764,25.6282 C32.4764,24.3442 31.6994,23.2392 30.5904,22.7572 L26.4944,15.6622 L33.1614,4.1162 L34.6894,4.1162 L33.8784,5.5182 L35.0844,5.5182 L36.8034,2.5412 L37.7124,4.1162 L41.7254,4.1162 L43.8504,7.7952 L47.5284,7.7952 L45.9024,10.6132 C45.2884,9.6712 44.1954,9.1132 43.0104,9.2132 C41.4924,9.3432 40.2684,10.5882 40.1634,12.1092 C40.1034,12.9872 40.3994,13.8232 40.9964,14.4642 C41.5464,15.0532 42.3094,15.4082 43.1104,15.4532 L41.7004,17.8962 L40.0584,15.0532 L35.4144,15.0532 L38.2804,20.0172 L38.2804,30.8042 L35.9084,34.9122 L43.0374,47.2602 L45.5144,47.2602 L47.2714,50.3032 L45.6784,50.3032 L44.7144,48.6342 L43.5094,48.6342 L44.4724,50.3032 L42.8884,50.3032 L41.9254,48.6342 L40.7194,48.6342 L41.6834,50.3032 L40.0094,50.3032 L29.8714,32.7422 Z M37.4144,34.3902 L44.8084,21.5892 L51.5214,21.5892 L49.5174,25.0562 L46.7884,25.0562 L41.4014,34.3902 L37.4144,34.3902 Z M12.3624,27.1782 L18.6394,27.1782 L6.5914,48.0472 C6.4964,48.2092 6.4964,48.4162 6.5934,48.5822 L8.0374,51.0822 C8.1274,51.2432 8.3054,51.3472 8.4964,51.3472 L34.3484,51.3472 L31.3854,46.2162 L25.5834,46.2162 L28.8564,40.5472 L28.2024,39.4132 L30.3594,35.6762 L39.4074,51.3472 L49.0804,51.3472 L46.1184,46.2162 L43.6404,46.2162 L37.4144,35.4342 L42.0044,35.4342 L47.3914,26.1012 L50.1204,26.1012 L53.3304,20.5442 L44.2054,20.5442 L39.3254,28.9962 L39.3254,19.7372 L37.2234,16.0982 L39.4554,16.0982 L41.2404,19.1892 C41.3344,19.3522 41.5104,19.4542 41.6994,19.4542 C41.8884,19.4542 42.0644,19.3522 42.1594,19.1892 L45.0994,14.0962 C45.1384,14.0272 45.0734,13.9462 44.9974,13.9702 L43.9244,14.3142 C43.9114,14.3182 43.8974,14.3222 43.8844,14.3262 C43.6004,14.4112 43.3024,14.4342 43.0024,14.3952 C42.6264,14.3462 42.2674,14.1922 41.9744,13.9522 C41.4334,13.5082 41.1584,12.8642 41.2044,12.1812 C41.2754,11.1682 42.0894,10.3402 43.0994,10.2542 C44.1304,10.1662 45.0594,10.8272 45.3064,11.8272 C45.3124,11.8482 45.3224,11.8922 45.3224,11.8922 L45.5564,12.9682 C45.5754,13.0532 45.6894,13.0712 45.7334,12.9952 L48.8674,7.5652 C49.0054,7.3242 48.9454,7.0022 48.6874,6.8342 C48.5984,6.7772 48.4924,6.7512 48.3854,6.7512 L44.4534,6.7512 L42.3294,3.0712 L38.3154,3.0712 L37.2704,1.2602 C37.1744,1.0952 36.9964,0.9912 36.8034,0.9912 C36.6114,0.9912 36.4324,1.0952 36.3364,1.2622 L35.2914,3.0712 L32.5574,3.0712 L25.8914,14.6182 L23.6474,10.7312 C23.5454,10.5552 23.3564,10.4462 23.1534,10.4462 L3.3964,10.4462 C3.2824,10.4462 3.1684,10.4732 3.0744,10.5352 C2.7974,10.7142 2.7334,11.0592 2.8814,11.3162 L11.8784,26.8992 C11.9784,27.0712 12.1634,27.1782 12.3624,27.1782 Z" id="Fill-4" fill="#D2D4D8"></path>
                        <path d="M56.0847,71.4435 L49.8467,71.4435 C49.7507,71.0415 49.6977,70.6325 49.5567,70.2575 C48.9927,68.7545 47.7067,67.8825 46.0287,67.8815 C34.0847,67.8755 22.1407,67.8745 10.1957,67.8825 C8.1267,67.8845 6.5097,69.4775 6.5037,71.4595 C6.4977,73.4765 8.1157,75.0635 10.2337,75.0645 C22.0407,75.0725 33.8477,75.0765 45.6537,75.0635 C48.8667,75.0605 51.6137,76.1215 53.6927,78.5995 C56.2027,81.5915 56.8547,84.9975 55.4017,88.6425 C53.9407,92.3095 51.1647,94.4265 47.2277,94.9595 C46.7517,95.0245 46.2657,95.0355 45.7837,95.0365 C34.0007,95.0395 22.2167,95.0045 10.4337,95.0555 C5.2407,95.0775 1.3117,91.4985 0.3597,87.0245 C0.2287,86.4035 0.1937,85.7615 0.1077,85.0735 L6.2577,85.0735 C6.6517,85.8745 6.9237,86.6355 7.3657,87.2775 C8.0497,88.2675 9.0827,88.6915 10.2827,88.6915 C22.1817,88.6915 34.0797,88.6965 45.9787,88.6855 C47.8807,88.6835 49.3377,87.4925 49.7127,85.7265 C50.0377,84.1945 49.1637,82.4645 47.5937,81.7965 C46.9627,81.5275 46.2147,81.4355 45.5207,81.4345 C33.8277,81.4135 22.1367,81.4095 10.4447,81.4265 C6.9677,81.4315 4.0937,80.1785 2.0757,77.3365 C-0.2273,74.0915 -0.5473,70.5645 1.2487,66.9895 C3.0077,63.4875 5.9587,61.5835 9.8657,61.5615 C22.0627,61.4925 34.2597,61.5035 46.4557,61.5545 C51.3557,61.5745 55.6107,65.6075 56.0807,70.4755 C56.1087,70.7705 56.0847,71.0705 56.0847,71.4435" id="Fill-6" fill="#000000"></path>
                    </g>
                    <path d="M11.5293119,107.243148 C12.2286391,107.243148 12.8802849,107.481555 13.3888865,107.902741 C13.4445148,107.942475 13.4524617,107.990157 13.4127272,108.045785 L13.0153822,108.538493 C12.9677008,108.594121 12.9120725,108.602068 12.8484973,108.54644 C12.4908868,108.260351 12.0299666,108.101413 11.4816305,108.101413 C10.9412413,108.101413 10.647206,108.252404 10.647206,108.498758 C10.647206,108.753059 10.885613,108.88021 11.6087809,108.951732 C12.7213469,109.055041 13.5239838,109.428546 13.5239838,110.334492 C13.5239838,111.200704 12.7134,111.701359 11.6246747,111.701359 C10.8299847,111.701359 10.2101265,111.510633 9.63794972,111.033819 C9.58232142,110.994085 9.58232142,110.938457 9.63000282,110.874881 L10.0035071,110.374227 C10.0511885,110.310652 10.1068168,110.302705 10.1624451,110.350386 C10.5995246,110.692103 11.0127634,110.843094 11.6405685,110.843094 C12.3081081,110.843094 12.6100903,110.644421 12.6100903,110.350386 C12.6100903,110.040457 12.3081081,109.90536 11.5054712,109.833838 C10.4405866,109.746422 9.73331252,109.428546 9.73331252,108.530546 C9.73331252,107.743803 10.488268,107.243148 11.5293119,107.243148 Z M18.4959451,107.306723 L19.4098386,107.306723 C19.4813607,107.306723 19.5210952,107.346458 19.5210952,107.41798 L19.5210952,111.526527 C19.5210952,111.598049 19.4813607,111.637784 19.4098386,111.637784 L18.7105114,111.637784 C18.6389893,111.637784 18.5992548,111.598049 18.5992548,111.526527 L18.5992548,109.953041 L18.6389893,108.768953 L18.5913079,108.761006 L17.9555559,110.398067 L17.4628481,111.558315 C17.4390074,111.613943 17.391326,111.637784 17.3356977,111.637784 L16.7953085,111.637784 C16.7396802,111.637784 16.6919988,111.613943 16.6681581,111.558315 L16.199291,110.398067 L15.5476452,108.753059 L15.4999638,108.761006 L15.5396983,109.953041 L15.5396983,111.526527 C15.5396983,111.598049 15.4999638,111.637784 15.4284417,111.637784 L14.7609021,111.637784 C14.68938,111.637784 14.6496455,111.598049 14.6496455,111.526527 L14.6496455,107.41798 C14.6496455,107.346458 14.68938,107.306723 14.7609021,107.306723 L15.6906894,107.306723 C15.7463177,107.306723 15.7939991,107.338511 15.8178398,107.394139 L16.4535918,108.848422 L17.0893438,110.453696 L17.1211314,110.453696 L17.7489365,108.848422 L18.3529009,107.394139 C18.3767416,107.338511 18.424423,107.306723 18.4959451,107.306723 Z M24.2657751,111.526527 L23.9637929,110.779519 L21.8022361,110.779519 L21.5002539,111.542421 C21.4764132,111.605996 21.4287318,111.637784 21.3651566,111.637784 L20.5784135,111.637784 C20.4989445,111.637784 20.4751038,111.598049 20.4989445,111.526527 L22.3744129,107.370299 C22.3903067,107.330564 22.4220943,107.306723 22.4777226,107.306723 L23.3836692,107.306723 C23.4392975,107.306723 23.4710851,107.330564 23.4869789,107.370299 L25.2750314,111.510633 C25.2988721,111.574209 25.2591376,111.637784 25.1876155,111.637784 L24.43266,111.637784 C24.353191,111.637784 24.2975627,111.598049 24.2657751,111.526527 Z M22.8591738,108.164989 L22.1360059,109.945094 L23.6459169,109.945094 L22.9465897,108.164989 L22.8591738,108.164989 Z M26.3561904,107.306723 L28.3111278,107.306723 C29.2727027,107.306723 30.0117644,107.990157 30.0117644,108.888156 C30.0117644,109.460333 29.7018353,109.953041 29.248862,110.215289 L29.9322954,111.526527 C29.964083,111.582156 29.9243485,111.637784 29.8607733,111.637784 L29.0819771,111.637784 C29.0184019,111.637784 28.9707205,111.613943 28.9389329,111.558315 L28.4064906,110.477536 C28.3508623,110.485483 28.3111278,110.485483 28.2793402,110.485483 L27.1667742,110.485483 L27.1667742,111.526527 C27.1667742,111.598049 27.1270397,111.637784 27.0555176,111.637784 L26.3561904,111.637784 C26.2846683,111.637784 26.2449338,111.598049 26.2449338,111.526527 L26.2449338,107.41798 C26.2449338,107.346458 26.2846683,107.306723 26.3561904,107.306723 Z M27.1667742,109.611324 L28.3111278,109.611324 C28.8117825,109.611324 29.089924,109.293448 29.089924,108.888156 C29.089924,108.482865 28.8117825,108.180882 28.3111278,108.180882 L27.1667742,108.180882 L27.1667742,109.611324 Z M30.8354438,107.306723 L34.5228054,107.306723 C34.5943275,107.306723 34.634062,107.346458 34.634062,107.41798 L34.634062,108.069626 C34.634062,108.141148 34.5943275,108.180882 34.5228054,108.180882 L33.1400448,108.180882 L33.1400448,111.526527 C33.1400448,111.598049 33.1003103,111.637784 33.0287882,111.637784 L32.329461,111.637784 C32.2579389,111.637784 32.2182044,111.598049 32.2182044,111.526527 L32.2182044,108.180882 L30.8354438,108.180882 C30.7639217,108.180882 30.7241872,108.141148 30.7241872,108.069626 L30.7241872,107.41798 C30.7241872,107.346458 30.7639217,107.306723 30.8354438,107.306723 Z" id="SMART" fill="#D2D4D8"></path>
                    <path d="M11.8761454,114.657606 C12.5754726,114.657606 13.2271184,114.896013 13.73572,115.317199 C13.7913483,115.356933 13.7992952,115.404614 13.7595607,115.460243 L13.3622157,115.952951 C13.3145343,116.008579 13.258906,116.016526 13.1953308,115.960897 C12.8377203,115.674809 12.3768001,115.515871 11.828464,115.515871 C11.2880748,115.515871 10.9940395,115.666862 10.9940395,115.913216 C10.9940395,116.167517 11.2324465,116.294667 11.9556144,116.366189 C13.0681804,116.469499 13.8708173,116.843003 13.8708173,117.74895 C13.8708173,118.615162 13.0602335,119.115817 11.9715082,119.115817 C11.1768182,119.115817 10.55696,118.925091 9.98478316,118.448277 C9.92915486,118.408543 9.92915486,118.352914 9.97683626,118.289339 L10.3503406,117.788684 C10.398022,117.725109 10.4536503,117.717162 10.5092786,117.764844 C10.9463581,118.10656 11.3595969,118.257552 11.987402,118.257552 C12.6549416,118.257552 12.9569238,118.058879 12.9569238,117.764844 C12.9569238,117.454915 12.6549416,117.319817 11.8523047,117.248295 C10.7874201,117.160879 10.080146,116.843003 10.080146,115.945004 C10.080146,115.158261 10.8351015,114.657606 11.8761454,114.657606 Z M15.1077355,114.721181 L18.32623,114.721181 C18.3977521,114.721181 18.4374866,114.760916 18.4374866,114.832438 L18.4374866,115.46819 C18.4374866,115.539712 18.3977521,115.579446 18.32623,115.579446 L15.9183193,115.579446 L15.9183193,116.39003 L18.0321947,116.39003 C18.1037168,116.39003 18.1434513,116.429765 18.1434513,116.501287 L18.1434513,117.137039 C18.1434513,117.208561 18.1037168,117.248295 18.0321947,117.248295 L15.9183193,117.248295 L15.9183193,118.186029 L18.3898052,118.186029 C18.4613273,118.186029 18.5010618,118.225764 18.5010618,118.297286 L18.5010618,118.940985 C18.5010618,119.012507 18.4613273,119.052242 18.3898052,119.052242 L15.1077355,119.052242 C15.0362134,119.052242 14.9964789,119.012507 14.9964789,118.940985 L14.9964789,114.832438 C14.9964789,114.768862 15.0521072,114.721181 15.1077355,114.721181 Z M21.5053706,114.657606 C22.2523792,114.657606 23.0152816,115.03111 23.3967328,115.682756 C23.4285204,115.738384 23.4205735,115.778119 23.380839,115.809906 L22.8801843,116.191358 C22.824556,116.246986 22.7609808,116.215198 22.7291932,116.175464 C22.4033703,115.730437 22.0457598,115.531765 21.5053706,115.531765 C20.7106806,115.531765 20.1861852,116.088048 20.1861852,116.874791 C20.1861852,117.661534 20.7186275,118.241658 21.5053706,118.241658 C22.0457598,118.241658 22.427211,118.050932 22.7530339,117.574118 C22.7927684,117.534384 22.8325029,117.534384 22.8801843,117.574118 L23.380839,117.971463 C23.4205735,118.011198 23.4285204,118.058879 23.3967328,118.098614 C22.9914409,118.766153 22.3000606,119.115817 21.5053706,119.115817 C20.2338666,119.115817 19.2643448,118.154242 19.2643448,116.874791 C19.2643448,115.59534 20.2338666,114.657606 21.5053706,114.657606 Z M24.4230582,117.144986 L24.4230582,114.832438 C24.4230582,114.760916 24.4627927,114.721181 24.5343148,114.721181 L25.233642,114.721181 C25.3051641,114.721181 25.3448986,114.760916 25.3448986,114.832438 L25.3448986,117.137039 C25.3448986,117.780738 25.7025091,118.241658 26.3621018,118.241658 C27.0058007,118.241658 27.3872519,117.804578 27.3872519,117.137039 L27.3872519,114.832438 C27.3872519,114.760916 27.4269864,114.721181 27.4985085,114.721181 L28.1978357,114.721181 C28.2693578,114.721181 28.3090923,114.760916 28.3090923,114.832438 L28.3090923,117.144986 C28.3090923,118.265498 27.5620837,119.115817 26.3621018,119.115817 C25.1700668,119.115817 24.4230582,118.265498 24.4230582,117.144986 Z M29.719253,114.721181 L31.6741904,114.721181 C32.6357653,114.721181 33.3748269,115.404614 33.3748269,116.302614 C33.3748269,116.874791 33.0648979,117.367499 32.6119246,117.629746 L33.295358,118.940985 C33.3271456,118.996613 33.2874111,119.052242 33.2238359,119.052242 L32.4450396,119.052242 C32.3814645,119.052242 32.3337831,119.028401 32.3019955,118.972773 L31.7695532,117.891994 C31.7139249,117.899941 31.6741904,117.899941 31.6424028,117.899941 L30.5298368,117.899941 L30.5298368,118.940985 C30.5298368,119.012507 30.4901023,119.052242 30.4185802,119.052242 L29.719253,119.052242 C29.6477309,119.052242 29.6079964,119.012507 29.6079964,118.940985 L29.6079964,114.832438 C29.6079964,114.760916 29.6477309,114.721181 29.719253,114.721181 Z M30.5298368,117.025782 L31.6741904,117.025782 C32.1748451,117.025782 32.4529866,116.707906 32.4529866,116.302614 C32.4529866,115.897322 32.1748451,115.59534 31.6741904,115.59534 L30.5298368,115.59534 L30.5298368,117.025782 Z M34.6665788,114.721181 L35.365906,114.721181 C35.4374281,114.721181 35.4771626,114.760916 35.4771626,114.832438 L35.4771626,118.940985 C35.4771626,119.012507 35.4374281,119.052242 35.365906,119.052242 L34.6665788,119.052242 C34.5950567,119.052242 34.5553222,119.012507 34.5553222,118.940985 L34.5553222,114.832438 C34.5553222,114.760916 34.5950567,114.721181 34.6665788,114.721181 Z M36.4780579,114.721181 L40.1654195,114.721181 C40.2369416,114.721181 40.2766761,114.760916 40.2766761,114.832438 L40.2766761,115.484083 C40.2766761,115.555606 40.2369416,115.59534 40.1654195,115.59534 L38.7826589,115.59534 L38.7826589,118.940985 C38.7826589,119.012507 38.7429244,119.052242 38.6714023,119.052242 L37.9720751,119.052242 C37.900553,119.052242 37.8608185,119.012507 37.8608185,118.940985 L37.8608185,115.59534 L36.4780579,115.59534 C36.4065358,115.59534 36.3668013,115.555606 36.3668013,115.484083 L36.3668013,114.832438 C36.3668013,114.760916 36.4065358,114.721181 36.4780579,114.721181 Z M43.7188591,117.947622 L43.7188591,118.940985 C43.7188591,119.012507 43.6791246,119.052242 43.6076025,119.052242 L42.9082753,119.052242 C42.8367532,119.052242 42.7970187,119.012507 42.7970187,118.940985 L42.7970187,117.947622 L41.0010193,114.808597 C40.9771786,114.768862 41.0010193,114.721181 41.0566476,114.721181 L41.9308066,114.721181 C41.9705411,114.721181 42.0102756,114.745022 42.0341163,114.784756 L43.249992,117.033729 L43.3056203,117.033729 L44.4658677,114.792703 C44.4897084,114.745022 44.521496,114.721181 44.5771243,114.721181 L45.4433364,114.721181 C45.4989647,114.721181 45.5228054,114.760916 45.4989647,114.816544 L43.7188591,117.947622 Z" id="SECURITY" fill="#D2D4D8"></path>
                </g>
            </g>
        </g>
    </g>
</svg>