<?xml version="1.0" encoding="UTF-8"?>
<svg width="76px" height="94px" viewBox="0 0 76 94" version="1.1" xmlns="http://www.w3.org/2000/svg" xmlns:xlink="http://www.w3.org/1999/xlink">
    <!-- Generator: Sketch 51.2 (57519) - http://www.bohemiancoding.com/sketch -->
    <title>Group</title>
    <desc>Created with Sketch.</desc>
    <defs></defs>
    <g id="Welcome" stroke="none" stroke-width="1" fill="none" fill-rule="evenodd">
        <g id="Подвал" transform="translate(-174.000000, 0.000000)">
            <g id="Head" transform="translate(3.000000, -3.000000)">
                <g id="Group" transform="translate(171.000000, 3.000000)">
                    <polygon id="Fill-2" fill="#000000" points="0 69 76 69 76 0 0 0"></polygon>
                    <polygon id="Fill-3" fill="#858585" points="0 94 76 94 76 69 0 69"></polygon>
                    <g id="Group-8" transform="translate(8.000000, 6.000000)" fill="#D2D4D8">
                        <path d="M12.2796923,29.1548462 L9.492,24.326 L25.8858462,24.326 L25.1900769,23.1213846 L8.79507692,23.1213846 L6.00738462,18.2913846 L22.377,18.2913846 L21.6800769,17.0867692 L5.31276923,17.0867692 L2.52392308,12.2579231 L24.0916154,12.2579231 L31.4289231,24.9652308 C29.4973846,25.0321538 27.9466154,26.6233077 27.9466154,28.571 C27.9466154,28.7694615 27.9639231,28.9644615 27.9950769,29.1548462 L12.2796923,29.1548462 Z M20.5908462,30.3594615 L28.4231538,30.3594615 C28.9504615,31.2790769 29.8700769,31.946 30.9546923,32.1283077 L30.9546923,37.1025385 L32.0266154,38.9602308 L29.5366154,43.2721538 L26.7373846,38.4225385 L20.262,38.4225385 L20.8746923,39.6271538 L26.0416154,39.6271538 L29.5977692,45.7852308 L25.8200769,52.3263846 L22.377,52.3263846 L22.377,53.531 L33.2116154,53.531 L35.2377692,57.0421538 L33.2993077,57.0421538 L32.1881538,55.1163846 L30.7966154,55.1163846 L31.9089231,57.0421538 L30.0812308,57.0421538 L28.9689231,55.1163846 L27.5773846,55.1163846 L28.6896923,57.0421538 L13.137,57.0421538 L20.1189231,44.951 L18.7273846,44.951 L11.7466154,57.0421538 L7.83738462,57.0421538 L6.51161538,54.746 L20.5908462,30.3594615 Z M29.1512308,28.571 C29.1512308,27.2452308 30.2312308,26.1663846 31.5558462,26.1663846 C32.8816154,26.1663846 33.9604615,27.2452308 33.9604615,28.571 C33.9604615,29.8967692 32.8816154,30.9756154 31.5558462,30.9756154 C30.2312308,30.9756154 29.1512308,29.8967692 29.1512308,28.571 Z M32.1593077,36.7794615 L32.1593077,32.1283077 C33.8623846,31.841 35.1650769,30.356 35.1650769,28.571 C35.1650769,27.0894615 34.2685385,25.8144615 32.9889231,25.2583077 L28.2627692,17.0717692 L35.9554615,3.74946154 L37.7185385,3.74946154 L36.7827692,5.36715385 L38.1743077,5.36715385 L40.1577692,1.93215385 L41.2066154,3.74946154 L45.837,3.74946154 L48.2889231,7.99446154 L52.5327692,7.99446154 L50.6566154,11.246 C49.9481538,10.1590769 48.687,9.51523077 47.3196923,9.63061538 C45.5681538,9.78061538 44.1558462,11.2171538 44.0346923,12.9721538 C43.9654615,13.9852308 44.307,14.9498462 44.9958462,15.6894615 C45.6304615,16.3690769 46.5108462,16.7786923 47.4350769,16.8306154 L45.8081538,19.6494615 L43.9135385,16.3690769 L38.5550769,16.3690769 L41.862,22.0967692 L41.862,34.5433077 L39.1250769,39.2833077 L47.3508462,53.531 L50.2089231,53.531 L52.2362308,57.0421538 L50.3981538,57.0421538 L49.2858462,55.1163846 L47.8954615,55.1163846 L49.0066154,57.0421538 L47.1789231,57.0421538 L46.0677692,55.1163846 L44.6762308,55.1163846 L45.7885385,57.0421538 L43.857,57.0421538 L32.1593077,36.7794615 Z M40.8627692,38.681 L49.3943077,23.9106154 L57.1400769,23.9106154 L54.8277692,27.911 L51.6789231,27.911 L45.4631538,38.681 L40.8627692,38.681 Z M11.9566154,30.3594615 L19.1993077,30.3594615 L5.29776923,54.4390769 C5.18815385,54.626 5.18815385,54.8648462 5.30007692,55.0563846 L6.96623077,57.941 C7.07007692,58.1267692 7.27546154,58.2467692 7.49584615,58.2467692 L37.3250769,58.2467692 L33.9062308,52.3263846 L27.2116154,52.3263846 L30.9881538,45.7852308 L30.2335385,44.4767692 L32.7223846,40.1648462 L43.1623846,58.2467692 L54.3235385,58.2467692 L50.9058462,52.3263846 L48.0466154,52.3263846 L40.8627692,39.8856154 L46.1589231,39.8856154 L52.3746923,29.1167692 L55.5235385,29.1167692 L59.2273846,22.7048462 L48.6985385,22.7048462 L43.0677692,32.4571538 L43.0677692,21.7736923 L40.6423846,17.5748462 L43.2177692,17.5748462 L45.2773846,21.1413846 C45.3858462,21.3294615 45.5889231,21.4471538 45.807,21.4471538 C46.0250769,21.4471538 46.2281538,21.3294615 46.3377692,21.1413846 L49.7300769,15.2648462 C49.7750769,15.1852308 49.7000769,15.0917692 49.6123846,15.1194615 L48.3743077,15.5163846 C48.3593077,15.521 48.3431538,15.5256154 48.3281538,15.5302308 C48.0004615,15.6283077 47.6566154,15.6548462 47.3104615,15.6098462 C46.8766154,15.5533077 46.4623846,15.3756154 46.1243077,15.0986923 C45.5000769,14.5863846 45.1827692,13.8433077 45.2358462,13.0552308 C45.3177692,11.8863846 46.257,10.931 47.4223846,10.8317692 C48.612,10.7302308 49.6839231,11.4929231 49.9689231,12.6467692 C49.9758462,12.671 49.9873846,12.7217692 49.9873846,12.7217692 L50.2573846,13.9633077 C50.2793077,14.0613846 50.4108462,14.0821538 50.4616154,13.9944615 L54.0777692,7.72907692 C54.237,7.451 54.1677692,7.07946154 53.8700769,6.88561538 C53.7673846,6.81984615 53.6450769,6.78984615 53.5216154,6.78984615 L48.9846923,6.78984615 L46.5339231,2.54369231 L41.9023846,2.54369231 L40.6966154,0.454076923 C40.5858462,0.263692308 40.3804615,0.143692308 40.1577692,0.143692308 C39.9362308,0.143692308 39.7296923,0.263692308 39.6189231,0.456384615 L38.4131538,2.54369231 L35.2585385,2.54369231 L27.567,15.8671538 L24.9777692,11.3821538 C24.8600769,11.1790769 24.642,11.0533077 24.4077692,11.0533077 L1.61123077,11.0533077 C1.47969231,11.0533077 1.34815385,11.0844615 1.23969231,11.156 C0.920076923,11.3625385 0.846230769,11.7606154 1.017,12.0571538 L11.3981538,30.0375385 C11.5135385,30.236 11.727,30.3594615 11.9566154,30.3594615 Z" id="Fill-4"></path>
                    </g>
                    <path d="M13.2401114,74 C14.0500712,74 14.8048064,74.2673797 15.3938681,74.7397504 C15.4582967,74.7843137 15.4675008,74.8377897 15.4214803,74.9001783 L14.9612759,75.4527629 C14.9060514,75.5151515 14.8416228,75.5240642 14.7679901,75.4616756 C14.3538061,75.14082 13.819969,74.9625668 13.1848869,74.9625668 C12.5590089,74.9625668 12.2184576,75.1319073 12.2184576,75.4081996 C12.2184576,75.6934046 12.4945803,75.8360071 13.3321523,75.916221 C14.6207247,76.0320856 15.5503376,76.4509804 15.5503376,77.4670232 C15.5503376,78.4385027 14.6115206,79 13.3505605,79 C12.4301517,79 11.7122328,78.7860963 11.0495384,78.2513369 C10.9851098,78.2067736 10.9851098,78.144385 11.0403343,78.0730838 L11.4729265,77.5115865 C11.528151,77.4402852 11.5925796,77.4313725 11.6570082,77.4848485 C12.1632331,77.8680927 12.6418457,78.0374332 13.3689687,78.0374332 C14.1421121,78.0374332 14.4918674,77.8146168 14.4918674,77.4848485 C14.4918674,77.1372549 14.1421121,76.9857398 13.2124992,76.9055258 C11.9791513,76.8074866 11.1599875,76.4509804 11.1599875,75.4438503 C11.1599875,74.5614973 12.0343759,74 13.2401114,74 Z M21.308856,74.0713012 L22.3673261,74.0713012 C22.4501629,74.0713012 22.4961834,74.1158645 22.4961834,74.1960784 L22.4961834,78.8039216 C22.4961834,78.8841355 22.4501629,78.9286988 22.3673261,78.9286988 L21.5573664,78.9286988 C21.4745296,78.9286988 21.4285091,78.8841355 21.4285091,78.8039216 L21.4285091,77.0392157 L21.4745296,75.7112299 L21.419305,75.7023173 L20.682978,77.5383244 L20.1123245,78.8395722 C20.0847122,78.9019608 20.0294877,78.9286988 19.9650591,78.9286988 L19.3391811,78.9286988 C19.2747525,78.9286988 19.219528,78.9019608 19.1919157,78.8395722 L18.6488745,77.5383244 L17.8941392,75.6934046 L17.8389147,75.7023173 L17.8849352,77.0392157 L17.8849352,78.8039216 C17.8849352,78.8841355 17.8389147,78.9286988 17.7560779,78.9286988 L16.9829345,78.9286988 C16.9000977,78.9286988 16.8540773,78.8841355 16.8540773,78.8039216 L16.8540773,74.1960784 C16.8540773,74.1158645 16.9000977,74.0713012 16.9829345,74.0713012 L18.0598128,74.0713012 C18.1242414,74.0713012 18.179466,74.1069519 18.2070782,74.1693405 L18.9434053,75.8003565 L19.6797324,77.600713 L19.7165487,77.600713 L20.4436717,75.8003565 L21.1431824,74.1693405 C21.1707947,74.1069519 21.2260192,74.0713012 21.308856,74.0713012 Z M27.9914649,78.8039216 L27.6417095,77.9661319 L25.1381975,77.9661319 L24.7884421,78.8217469 C24.7608299,78.8930481 24.7056054,78.9286988 24.6319726,78.9286988 L23.7207679,78.9286988 C23.628727,78.9286988 23.6011148,78.8841355 23.628727,78.8039216 L25.8008919,74.1426025 C25.8193,74.0980392 25.8561164,74.0713012 25.920545,74.0713012 L26.9698111,74.0713012 C27.0342397,74.0713012 27.071056,74.0980392 27.0894642,74.1426025 L29.1603841,78.7860963 C29.1879963,78.8573975 29.1419759,78.9286988 29.0591391,78.9286988 L28.1847507,78.9286988 C28.0927098,78.9286988 28.0282812,78.8841355 27.9914649,78.8039216 Z M26.3623412,75.0338681 L25.5247692,77.030303 L27.273546,77.030303 L26.4635862,75.0338681 L26.3623412,75.0338681 Z M30.4125809,74.0713012 L32.6767866,74.0713012 C33.7904813,74.0713012 34.6464615,74.8377897 34.6464615,75.8449198 C34.6464615,76.486631 34.287502,77.0392157 33.762869,77.3333333 L34.5544206,78.8039216 C34.5912369,78.8663102 34.5452165,78.9286988 34.4715838,78.9286988 L33.5695831,78.9286988 C33.4959504,78.9286988 33.4407259,78.9019608 33.4039096,78.8395722 L32.7872356,77.627451 C32.722807,77.6363636 32.6767866,77.6363636 32.6399702,77.6363636 L31.3513979,77.6363636 L31.3513979,78.8039216 C31.3513979,78.8841355 31.3053774,78.9286988 31.2225406,78.9286988 L30.4125809,78.9286988 C30.3297441,78.9286988 30.2837236,78.8841355 30.2837236,78.8039216 L30.2837236,74.1960784 C30.2837236,74.1158645 30.3297441,74.0713012 30.4125809,74.0713012 Z M31.3513979,76.6559715 L32.6767866,76.6559715 C33.2566441,76.6559715 33.5787872,76.2994652 33.5787872,75.8449198 C33.5787872,75.3903743 33.2566441,75.0516934 32.6767866,75.0516934 L31.3513979,75.0516934 L31.3513979,76.6559715 Z M35.6004458,74.0713012 L39.8711428,74.0713012 C39.9539796,74.0713012 40,74.1158645 40,74.1960784 L40,74.9269162 C40,75.0071301 39.9539796,75.0516934 39.8711428,75.0516934 L38.2696314,75.0516934 L38.2696314,78.8039216 C38.2696314,78.8841355 38.223611,78.9286988 38.1407742,78.9286988 L37.3308144,78.9286988 C37.2479776,78.9286988 37.2019572,78.8841355 37.2019572,78.8039216 L37.2019572,75.0516934 L35.6004458,75.0516934 C35.517609,75.0516934 35.4715886,75.0071301 35.4715886,74.9269162 L35.4715886,74.1960784 C35.4715886,74.1158645 35.517609,74.0713012 35.6004458,74.0713012 Z" id="SMART" fill="#000000"></path>
                    <path d="M13.2296335,83 C14.0358048,83 14.7870098,83.2673797 15.3733162,83.7397504 C15.4374434,83.7843137 15.4466045,83.8377897 15.4007993,83.9001783 L14.9427474,84.4527629 C14.8877812,84.5151515 14.823654,84.5240642 14.7503657,84.4616756 C14.338119,84.14082 13.8067788,83.9625668 13.1746673,83.9625668 C12.5517168,83.9625668 12.2127584,84.1319073 12.2127584,84.4081996 C12.2127584,84.6934046 12.4875895,84.8360071 13.3212439,84.916221 C14.6037891,85.0320856 15.5290538,85.4509804 15.5290538,86.4670232 C15.5290538,87.4385027 14.594628,88 13.339566,88 C12.4234623,88 11.7089014,87.7860963 11.0493067,87.2513369 C10.9851794,87.2067736 10.9851794,87.144385 11.0401457,87.0730838 L11.4707144,86.5115865 C11.5256806,86.4402852 11.5898079,86.4313725 11.6539351,86.4848485 C12.1577922,86.8680927 12.6341661,87.0374332 13.357888,87.0374332 C14.1274151,87.0374332 14.4755346,86.8146168 14.4755346,86.4848485 C14.4755346,86.1372549 14.1274151,85.9857398 13.2021504,85.9055258 C11.9745714,85.8074866 11.1592391,85.4509804 11.1592391,84.4438503 C11.1592391,83.5614973 12.0295377,83 13.2296335,83 Z M16.9549499,83.0713012 L20.6651699,83.0713012 C20.7476193,83.0713012 20.7934244,83.1158645 20.7934244,83.1960784 L20.7934244,83.9090909 C20.7934244,83.9893048 20.7476193,84.0338681 20.6651699,84.0338681 L17.8893757,84.0338681 L17.8893757,84.942959 L20.3262115,84.942959 C20.4086609,84.942959 20.4544661,84.9875223 20.4544661,85.0677362 L20.4544661,85.7807487 C20.4544661,85.8609626 20.4086609,85.9055258 20.3262115,85.9055258 L17.8893757,85.9055258 L17.8893757,86.9572193 L20.7384582,86.9572193 C20.8209075,86.9572193 20.8667127,87.0017825 20.8667127,87.0819964 L20.8667127,87.8039216 C20.8667127,87.8841355 20.8209075,87.9286988 20.7384582,87.9286988 L16.9549499,87.9286988 C16.8725006,87.9286988 16.8266954,87.8841355 16.8266954,87.8039216 L16.8266954,83.1960784 C16.8266954,83.1247772 16.8908227,83.0713012 16.9549499,83.0713012 Z M24.3300235,83 C25.191161,83 26.0706205,83.4188948 26.5103503,84.1497326 C26.5469944,84.2121212 26.5378334,84.2566845 26.4920282,84.2923351 L25.9148829,84.7201426 C25.8507556,84.7825312 25.7774673,84.7468806 25.7408232,84.7023173 C25.3652207,84.2032086 24.952974,83.9803922 24.3300235,83.9803922 C23.4139198,83.9803922 22.8092913,84.6042781 22.8092913,85.486631 C22.8092913,86.368984 23.4230808,87.0196078 24.3300235,87.0196078 C24.952974,87.0196078 25.3927038,86.8057041 25.7683063,86.2709447 C25.8141115,86.2263815 25.8599167,86.2263815 25.9148829,86.2709447 L26.4920282,86.7165775 C26.5378334,86.7611408 26.5469944,86.8146168 26.5103503,86.85918 C26.0431374,87.6078431 25.2461272,88 24.3300235,88 C22.8642576,88 21.746611,86.9215686 21.746611,85.486631 C21.746611,84.0516934 22.8642576,83 24.3300235,83 Z M27.6934789,85.7896613 L27.6934789,83.1960784 C27.6934789,83.1158645 27.7392841,83.0713012 27.8217334,83.0713012 L28.6279047,83.0713012 C28.710354,83.0713012 28.7561592,83.1158645 28.7561592,83.1960784 L28.7561592,85.7807487 C28.7561592,86.5026738 29.1684059,87.0196078 29.928772,87.0196078 C30.670816,87.0196078 31.1105457,86.5294118 31.1105457,85.7807487 L31.1105457,83.1960784 C31.1105457,83.1158645 31.1563509,83.0713012 31.2388002,83.0713012 L32.0449715,83.0713012 C32.1274208,83.0713012 32.173226,83.1158645 32.173226,83.1960784 L32.173226,85.7896613 C32.173226,87.0463458 31.3120885,88 29.928772,88 C28.5546164,88 27.6934789,87.0463458 27.6934789,85.7896613 Z M33.7988327,83.0713012 L36.0524479,83.0713012 C37.1609333,83.0713012 38.0129098,83.8377897 38.0129098,84.8449198 C38.0129098,85.486631 37.6556293,86.0392157 37.1334502,86.3333333 L37.9212994,87.8039216 C37.9579436,87.8663102 37.9121384,87.9286988 37.8388501,87.9286988 L36.9410684,87.9286988 C36.8677801,87.9286988 36.8128139,87.9019608 36.7761698,87.8395722 L36.1623803,86.627451 C36.098253,86.6363636 36.0524479,86.6363636 36.0158037,86.6363636 L34.7332585,86.6363636 L34.7332585,87.8039216 C34.7332585,87.8841355 34.6874533,87.9286988 34.605004,87.9286988 L33.7988327,87.9286988 C33.7163834,87.9286988 33.6705782,87.8841355 33.6705782,87.8039216 L33.6705782,83.1960784 C33.6705782,83.1158645 33.7163834,83.0713012 33.7988327,83.0713012 Z M34.7332585,85.6559715 L36.0524479,85.6559715 C36.6295932,85.6559715 36.9502295,85.2994652 36.9502295,84.8449198 C36.9502295,84.3903743 36.6295932,84.0516934 36.0524479,84.0516934 L34.7332585,84.0516934 L34.7332585,85.6559715 Z M39.502017,83.0713012 L40.3081883,83.0713012 C40.3906376,83.0713012 40.4364428,83.1158645 40.4364428,83.1960784 L40.4364428,87.8039216 C40.4364428,87.8841355 40.3906376,87.9286988 40.3081883,87.9286988 L39.502017,87.9286988 C39.4195677,87.9286988 39.3737625,87.8841355 39.3737625,87.8039216 L39.3737625,83.1960784 C39.3737625,83.1158645 39.4195677,83.0713012 39.502017,83.0713012 Z M41.5902561,83.0713012 L45.8409773,83.0713012 C45.9234266,83.0713012 45.9692318,83.1158645 45.9692318,83.1960784 L45.9692318,83.9269162 C45.9692318,84.0071301 45.9234266,84.0516934 45.8409773,84.0516934 L44.2469569,84.0516934 L44.2469569,87.8039216 C44.2469569,87.8841355 44.2011517,87.9286988 44.1187023,87.9286988 L43.3125311,87.9286988 C43.2300818,87.9286988 43.1842766,87.8841355 43.1842766,87.8039216 L43.1842766,84.0516934 L41.5902561,84.0516934 C41.5078068,84.0516934 41.4620016,84.0071301 41.4620016,83.9269162 L41.4620016,83.1960784 C41.4620016,83.1158645 41.5078068,83.0713012 41.5902561,83.0713012 Z M49.9373157,86.6898396 L49.9373157,87.8039216 C49.9373157,87.8841355 49.8915105,87.9286988 49.8090612,87.9286988 L49.0028899,87.9286988 C48.9204406,87.9286988 48.8746354,87.8841355 48.8746354,87.8039216 L48.8746354,86.6898396 L46.804241,83.1693405 C46.7767579,83.1247772 46.804241,83.0713012 46.8683683,83.0713012 L47.8760824,83.0713012 C47.9218876,83.0713012 47.9676927,83.0980392 47.9951759,83.1426025 L49.3968145,85.6648841 L49.4609418,85.6648841 L50.7984532,83.1515152 C50.8259363,83.0980392 50.8625805,83.0713012 50.9267077,83.0713012 L51.9252607,83.0713012 C51.989388,83.0713012 52.0168711,83.1158645 51.989388,83.1782531 L49.9373157,86.6898396 Z" id="SECURITY" fill="#000000"></path>
                </g>
            </g>
        </g>
    </g>
</svg>