<?xml version="1.0" encoding="UTF-8"?>
<svg width="105px" height="105px" viewBox="0 0 105 105" version="1.1" xmlns="http://www.w3.org/2000/svg" xmlns:xlink="http://www.w3.org/1999/xlink">
    <!-- Generator: Sketch 51.2 (57519) - http://www.bohemiancoding.com/sketch -->
    <title>Грифон</title>
    <desc>Created with Sketch.</desc>
    <defs>
        <polygon id="path-1" points="0 0 105 0 105 105 0 105"></polygon>
    </defs>
    <g id="Welcome" stroke="none" stroke-width="1" fill="none" fill-rule="evenodd">
        <g id="Main-page" transform="translate(-1134.000000, -8500.000000)">
            <g id="Подвал" transform="translate(0.000000, 8432.000000)">
                <g id="Грифон" transform="translate(1134.000000, 68.000000)">
                    <mask id="mask-2" fill="white">
                        <use xlink:href="#path-1"></use>
                    </mask>
                    <g id="Clip-2"></g>
                    <path d="M20.4452058,52.426162 L15.4249949,43.7005824 L44.9506422,43.7005824 L43.6984641,41.5223602 L14.1716669,41.5223602 L9.15030612,32.7944731 L38.6311097,32.7944731 L37.3766318,30.6185584 L7.89697815,30.6185584 L2.87561737,21.8906714 L41.7207356,21.8906714 L54.933572,44.8554554 C51.4552994,44.976596 48.6634826,47.8516647 48.6634826,51.3705087 C48.6634826,51.7293155 48.6933785,52.0823536 48.7497208,52.426162 L20.4452058,52.426162 Z M35.4150011,54.6043841 L49.5212649,54.6043841 C50.4710345,56.26574 52.1291069,57.4702231 54.0792393,57.8001868 L54.0792393,66.7888144 L56.0109741,70.1461378 L51.5277395,77.9383584 L46.4845317,69.1747061 L34.8216825,69.1747061 L35.9266809,71.3506208 L45.2323536,71.3506208 L51.6358247,82.4805516 L44.8345082,94.3004065 L38.6311097,94.3004065 L38.6311097,96.477475 L58.1450812,96.477475 L61.7958301,102.822932 L58.3037594,102.822932 L56.3018842,99.3421602 L53.7963781,99.3421602 L55.7982533,102.822932 L52.5062552,102.822932 L50.50438,99.3421602 L47.9988739,99.3421602 L50.0007491,102.822932 L21.9905937,102.822932 L34.5641179,80.9714866 L32.0586118,80.9714866 L19.4850876,102.822932 L12.4457538,102.822932 L10.0575316,98.6718492 L35.4150011,54.6043841 Z M50.8332348,51.3705087 C50.8332348,48.9753873 52.7753182,47.0256016 55.1635404,47.0256016 C57.5517626,47.0256016 59.4949959,48.9753873 59.4949959,51.3705087 C59.4949959,53.7667839 57.5517626,55.7165696 55.1635404,55.7165696 C52.7753182,55.7165696 50.8332348,53.7667839 50.8332348,51.3705087 Z M56.2489915,66.2050324 L56.2489915,57.8001868 C59.3190701,57.2810131 61.6647481,54.5963081 61.6647481,51.3705087 C61.6647481,48.6950335 60.04807,46.3899022 57.7437863,45.3850126 L49.2315047,30.5908691 L63.085953,6.51389957 L66.262967,6.51389957 L64.579598,9.4397319 L67.0851041,9.4397319 L70.6565139,3.23156796 L72.5457046,6.51389957 L80.8843601,6.51389957 L85.299754,14.1872871 L92.9439048,14.1872871 L89.5645186,20.0620262 C88.2881938,18.0983958 86.0161057,16.9342929 83.5554434,17.1442699 C80.4014263,17.4142402 77.8579755,20.0101088 77.6383556,23.1816833 C77.5130228,25.012636 78.1281884,26.7559059 79.3711678,28.091913 C80.512961,29.3206241 82.0974436,30.0601582 83.7612652,30.1536095 L80.8314673,35.2484342 L77.4210354,29.3217778 L67.7704101,29.3217778 L73.7254427,39.6717943 L73.7254427,62.1635535 L68.7960693,70.7299198 L83.6117857,96.477475 L88.7596291,96.477475 L92.410378,102.822932 L89.0999824,102.822932 L87.0969573,99.3421602 L84.5914512,99.3421602 L86.5944763,102.822932 L83.3024782,102.822932 L81.3006029,99.3421602 L78.793947,99.3421602 L80.7969721,102.822932 L77.3186995,102.822932 L56.2489915,66.2050324 Z M71.9270895,69.6419624 L87.2912807,42.9483573 L101.241166,42.9483573 L97.0775874,50.1798703 L91.4077156,50.1798703 L80.2117024,69.6419624 L71.9270895,69.6419624 Z M19.8622358,54.6043841 L32.909495,54.6043841 L7.86938194,98.1192177 C7.67160909,98.4561037 7.67160909,98.8875948 7.87513115,99.2348643 L10.8739195,104.446215 C11.0636435,104.784254 11.431593,105 11.8305882,105 L65.5535143,105 L59.3972593,94.3004065 L47.3400143,94.3004065 L54.1413308,82.4805516 L52.7799176,80.1154269 L57.2643021,72.3232062 L76.0665213,105 L96.1680623,105 L90.0118072,94.3004065 L84.862814,94.3004065 L71.9270895,71.8190309 L81.4638805,71.8190309 L92.6610436,52.3557851 L98.3297655,52.3557851 L105,40.7701351 L86.0391025,40.7701351 L75.8963447,58.3943523 L75.8963447,39.0880123 L71.5292441,31.4988463 L76.1677075,31.4988463 L79.8770983,37.9435227 C80.0725715,38.2850236 80.4393711,38.497308 80.8314673,38.497308 C81.2224137,38.497308 81.5880635,38.2850236 81.7846865,37.9446764 L87.8960976,27.3246896 C87.9777364,27.1816284 87.8420551,27.0131854 87.6856765,27.063949 L85.4549827,27.779255 C85.4273865,27.7884848 85.3986404,27.7965608 85.3710442,27.8046369 C84.7811752,27.9823096 84.1625601,28.0307658 83.5381958,27.9488518 C82.7563031,27.8461708 82.0112054,27.5254368 81.401789,27.0235688 C80.2783932,26.1005933 79.7057718,24.7565103 79.8035084,23.3316668 C79.9483885,21.2203604 81.6409562,19.4932425 83.7394182,19.314416 C85.8838738,19.1309746 87.813309,20.5096693 88.3272885,22.5932865 C88.3387869,22.6382815 88.3583342,22.7294253 88.3583342,22.7294253 L88.8458673,24.9722558 C88.8849619,25.1510823 89.1229792,25.189155 89.2138168,25.0299418 L95.7265229,13.7061861 C96.0139834,13.2054719 95.8875008,12.5328535 95.3528242,12.1832766 C95.1665497,12.0632897 94.94578,12.0102187 94.7261602,12.0102187 L86.553082,12.0102187 L82.137688,4.33683112 L73.7978827,4.33683112 L71.6258309,0.560707615 C71.428058,0.215745522 71.056659,0 70.6565139,0 C70.2563688,0 69.8849698,0.215745522 69.6860471,0.564168773 L67.5151451,4.33683112 L61.8326251,4.33683112 L47.9781767,28.4149544 L43.3155667,20.3089221 C43.1039957,19.9431931 42.7107497,19.7136029 42.2876078,19.7136029 L1.23019322,19.7136029 C0.994475576,19.7136029 0.757608087,19.7701351 0.559835233,19.9005054 C-0.0139360121,20.2743105 -0.146167862,20.9930777 0.160839999,21.5284035 L18.8584236,54.0217559 C19.0653952,54.3805626 19.4505923,54.6043841 19.8622358,54.6043841 Z" id="Fill-1" fill="#FFFFFF" mask="url(#mask-2)"></path>
                </g>
            </g>
        </g>
    </g>
</svg>