<?xml version="1.0" encoding="UTF-8"?>
<svg width="36px" height="43px" viewBox="0 0 36 43" version="1.1" xmlns="http://www.w3.org/2000/svg" xmlns:xlink="http://www.w3.org/1999/xlink">
    <!-- Generator: Sketch 51.2 (57519) - http://www.bohemiancoding.com/sketch -->
    <title>Fill 1</title>
    <desc>Created with Sketch.</desc>
    <defs></defs>
    <g id="Welcome" stroke="none" stroke-width="1" fill="none" fill-rule="evenodd">
        <g id="Main-page" transform="translate(-280.000000, -2555.000000)" fill="#000000">
            <g id="Меню-услуг-1" transform="translate(250.000000, 2526.000000)">
                <path d="M38.5821913,39.6968171 L38.5925235,39.5404721 C38.9024898,34.6079156 43.0444141,30.7441438 48.024539,30.7441438 C53.2423047,30.7441438 57.4862596,34.9552065 57.4914257,40.0530786 L57.4862596,40.1440663 C57.4810935,42.9377719 56.2257301,45.5674435 54.0327187,47.3731001 L53.6155557,47.6896346 C53.5212743,47.7652441 53.4282844,47.839572 53.3107555,47.9203076 C53.1002368,48.0625559 52.8768028,48.1907075 52.6507857,48.3188592 L52.5242161,48.3931871 C52.3343618,48.4944269 52.1341752,48.584133 51.927531,48.6764022 L51.6937648,48.7878941 C51.5620291,48.8429993 51.4199613,48.8904154 51.281768,48.9391131 L50.9911746,49.0429159 C50.9343474,49.0634202 50.8788118,49.0864875 50.8232762,49.1031472 C50.714788,49.1364666 50.6037167,49.1608154 50.493937,49.1877272 L50.1426419,49.2774334 C50.0677334,49.2979377 49.9928249,49.3184419 49.9256655,49.3325386 C49.8081366,49.3556059 49.6893162,49.3709841 49.5704958,49.3876438 L49.2372821,49.4363414 C49.1572074,49.4504381 49.0745498,49.4658163 48.9854345,49.4735054 C48.6909665,49.5042618 48.3977901,49.5209215 48.098156,49.5234845 L48.0154983,49.522203 L48.0142068,49.522203 C47.0520198,49.522203 46.1066227,49.3799547 45.2025544,49.0993026 C45.1237713,49.0749538 45.0475712,49.0441974 44.9713712,49.0147225 L44.6407405,48.8955415 C44.5374184,48.8596591 44.4353878,48.8250581 44.3372318,48.7840496 C40.8281553,47.3103058 38.5602353,43.9142874 38.5602353,40.1325326 C38.5602353,39.9864398 38.5705676,39.8403469 38.5821913,39.6968171 Z M43.655306,50.3897896 C43.7857502,50.4436133 43.9226519,50.4923109 44.0582622,50.539727 L44.344981,50.6435298 C44.4547607,50.6845384 44.565832,50.7255469 44.6781947,50.7614293 C45.7256224,51.088216 46.8221281,51.2573762 47.9367152,51.2650653 L48.0258305,51.2676283 C48.4068307,51.2676283 48.790414,51.247124 49.1572074,51.2099601 C49.2850685,51.1971449 49.4077635,51.1766406 49.5330415,51.1561364 L49.8068451,51.1151279 C49.9618282,51.0946236 50.1168114,51.0728378 50.2782521,51.0420814 C50.3893234,51.0190141 50.4965201,50.9895393 50.6037167,50.9613459 L50.9046423,50.8844549 C51.0531678,50.8485725 51.2016933,50.8139715 51.3489273,50.7678369 C51.4393341,50.738362 51.5284495,50.7063241 51.6188563,50.6730047 L51.8590801,50.5871431 C52.0321447,50.5281934 52.2065007,50.4666806 52.3808567,50.3936341 C52.4480161,50.3654408 52.5138839,50.3346844 52.5797517,50.3026465 L52.6572433,50.264201 C52.8961756,50.1591166 53.1338165,50.0501878 53.3675827,49.9245992 L53.5212743,49.8336115 C53.7847456,49.6849556 54.048217,49.5324551 54.3142714,49.3517613 C54.4524647,49.2594922 54.5842003,49.1556893 54.7133529,49.053168 L55.1640956,48.7058771 C57.752314,46.5798414 59.2401521,43.4606306 59.2401521,40.2248018 L59.2453182,40.1325326 C59.2453182,33.9940693 54.2122408,29 48.0258305,29 C42.1183899,29 37.2067159,33.581421 36.838631,39.4315432 L36.8295903,39.5763545 C36.8153835,39.7596114 36.8037598,39.9441497 36.8037598,40.1325326 C36.8024682,44.6165584 39.4914257,48.6418013 43.655306,50.3897896 Z M31.7603501,70.2558562 C31.8352587,64.1135483 35.4941523,58.4787209 41.0735452,55.8849318 L41.2517758,55.8144484 L41.2724403,55.7952256 C41.7102676,55.5965906 42.1610103,55.4171783 42.6182105,55.2569887 L42.7628614,55.2057281 C43.012126,55.1198665 43.2588075,55.041694 43.5171127,54.9686476 C43.8374112,54.8750969 44.1641673,54.7917983 44.492215,54.7187519 C44.6626964,54.6828694 44.8318863,54.64955 45.0075339,54.6162306 C45.1457272,54.5918817 45.2839205,54.5649699 45.4246969,54.5431841 L45.4931477,54.5316505 C45.7437038,54.4919235 45.9955514,54.456041 46.247399,54.4291292 L46.8221281,54.37915 C47.5750879,54.3240448 48.2957595,54.3163557 49.1662481,54.37915 L49.7254789,54.4252846 C49.8636722,54.4406628 50.0031571,54.4598856 50.1697639,54.4829529 L50.371242,54.5124277 C50.5817608,54.5419026 50.7922795,54.5777851 51.0027983,54.6175121 L51.1009543,54.6354533 C51.2197747,54.6572391 51.3373036,54.6803064 51.4496664,54.7033737 C51.7945038,54.7789831 52.1354667,54.8674078 52.4738466,54.964803 C52.6972806,55.0288788 52.9194231,55.0955177 53.135108,55.1672826 C53.40762,55.2569887 53.6788405,55.3556655 53.9474779,55.4620314 C54.2057832,55.5619896 54.4589223,55.669637 54.7094784,55.783692 L54.7533903,55.8041962 C60.4580613,58.4005484 64.1634498,64.053317 64.2383583,70.2532932 L31.7603501,70.2532932 L31.7603501,70.2558562 Z M55.5089331,54.2279311 L55.3991533,54.177952 C55.1330989,54.0574894 54.8670446,53.944716 54.5945325,53.8396316 C54.3000646,53.7230136 53.999139,53.6128032 53.6930473,53.5115634 C53.4528234,53.433391 53.2100165,53.359063 52.9659181,53.2872981 C52.5913755,53.1809322 52.2142498,53.083537 51.8255005,52.9976754 C51.6924733,52.9707635 51.5594461,52.9451332 51.4251274,52.9220659 L51.333429,52.9041247 C51.1048289,52.8592716 50.8749372,52.8195446 50.641171,52.7862252 L50.5740116,52.7759731 C50.5714286,52.7759731 50.570137,52.7746915 50.567554,52.7746915 L50.5016862,52.7657209 C50.3079572,52.7362461 50.1155198,52.7093342 49.9140418,52.6862669 L49.232116,52.6311617 C48.3939155,52.5760565 47.5298845,52.5786195 46.7007247,52.6375693 L46.4592093,52.6580736 L46.3468465,52.6670442 L46.0640023,52.6926745 C45.8056971,52.7195863 45.5486834,52.7554688 45.2890866,52.7964773 L45.2141781,52.8054479 C45.0385305,52.8349228 44.8615914,52.8682422 44.6898185,52.8989986 C44.4973811,52.9335996 44.3075267,52.9707635 44.1163809,53.0117721 C43.7495874,53.0937891 43.3853771,53.1873398 43.0314989,53.2898611 C42.7512377,53.3693151 42.4722681,53.4577398 42.2113798,53.5474459 L42.0305661,53.6115217 C41.4752099,53.8063122 40.9263113,54.0292961 40.392911,54.2740657 L40.2508431,54.3419861 L40.24826,54.3445491 C34.0192294,57.3035704 30,63.6073493 30,70.4480837 C30,70.6057102 30.0103322,70.7594922 30.0206644,70.9145556 L30.0671594,72 L65.9315491,72 L65.9793356,70.9273708 C65.9896678,70.7684628 66,70.6108363 66,70.4480837 C66,63.4984205 61.8839061,57.1395363 55.5089331,54.2279311 Z" id="Fill-1"></path>
            </g>
        </g>
    </g>
</svg>