<?xml version="1.0" encoding="UTF-8"?>
<svg width="216px" height="20px" viewBox="0 0 216 20" version="1.1" xmlns="http://www.w3.org/2000/svg" xmlns:xlink="http://www.w3.org/1999/xlink">
    <!-- Generator: Sketch 51.2 (57519) - http://www.bohemiancoding.com/sketch -->
    <title>Group</title>
    <desc>Created with Sketch.</desc>
    <defs>
        <polygon id="path-1" points="0 0.748 32.1813416 0.748 32.1813416 19.9997614 0 19.9997614"></polygon>
        <polygon id="path-3" points="0.0445 0.7836 32 0.7836 32 19.9666 0.0445 19.9666"></polygon>
    </defs>
    <g id="Welcome" stroke="none" stroke-width="1" fill="none" fill-rule="evenodd">
        <g id="Main-page" transform="translate(-612.000000, -40.000000)">
            <g id="Head">
                <g id="Group" transform="translate(612.000000, 39.000000)">
                    <g id="Group-3" transform="translate(0.000000, 0.252200)">
                        <mask id="mask-2" fill="white">
                            <use xlink:href="#path-1"></use>
                        </mask>
                        <g id="Clip-2"></g>
                        <path d="M32.1362,6.4477 L28.5552,6.4477 C28.5002,6.2167 28.4702,5.9827 28.3892,5.7667 C28.0662,4.9047 27.3272,4.4037 26.3652,4.4037 C19.5092,4.3997 12.6532,4.3987 5.7972,4.4037 C4.6102,4.4047 3.6812,5.3197 3.6782,6.4567 C3.6752,7.6147 4.6042,8.5257 5.8202,8.5257 C12.5962,8.5307 19.3722,8.5327 26.1492,8.5257 C27.9932,8.5237 29.5702,9.1327 30.7632,10.5547 C32.2032,12.2717 32.5772,14.2277 31.7442,16.3197 C30.9062,18.4237 29.3122,19.6397 27.0522,19.9457 C26.7792,19.9827 26.5002,19.9887 26.2242,19.9887 C19.4602,19.9917 12.6972,19.9707 5.9342,19.9997 C2.9532,20.0127 0.6982,17.9587 0.1522,15.3907 C0.0752,15.0347 0.0572,14.6657 0.0072,14.2707 L3.5372,14.2707 C3.7632,14.7307 3.9192,15.1677 4.1732,15.5357 C4.5652,16.1047 5.1582,16.3477 5.8472,16.3477 C12.6772,16.3477 19.5062,16.3507 26.3352,16.3437 C27.4272,16.3427 28.2632,15.6587 28.4792,14.6457 C28.6652,13.7667 28.1632,12.7727 27.2622,12.3897 C26.9012,12.2357 26.4712,12.1827 26.0732,12.1827 C19.3622,12.1707 12.6512,12.1677 5.9402,12.1777 C3.9452,12.1807 2.2942,11.4607 1.1372,9.8297 C-0.1848,7.9677 -0.3688,5.9427 0.6612,3.8907 C1.6712,1.8807 3.3652,0.7887 5.6082,0.7757 C12.6082,0.7357 19.6092,0.7427 26.6102,0.7717 C29.4212,0.7837 31.8652,3.0977 32.1342,5.8917 C32.1502,6.0617 32.1362,6.2337 32.1362,6.4477" id="Fill-1" fill="#FFFFFF" mask="url(#mask-2)"></path>
                    </g>
                    <path d="M64.8296,12.772 L64.8486,6.707 C64.8826,5.696 64.0426,4.599 62.7966,4.643 C62.7966,4.643 48.1896,4.673 42.9036,4.639 C41.6326,4.631 40.7846,5.686 40.8206,6.714 L40.8396,12.772 L64.8296,12.772 Z M37.0516,20.222 L37.0516,6.545 C37.0516,3.536 39.4556,1.034 42.4606,1.022 C49.3816,0.994 56.3036,0.994 63.2246,1.022 C66.2046,1.035 68.6156,3.541 68.6166,6.522 L68.6176,20.221 L64.8416,20.221 L64.8416,16.462 L40.8446,16.462 L40.8446,20.222 L37.0516,20.222 Z" id="Fill-4" fill="#FFFFFF"></path>
                    <path d="M154.0473,12.7665 L178.0373,12.7665 L178.0373,12.3085 C178.0373,10.4505 177.9883,8.5895 178.0563,6.7335 C178.0943,5.6685 177.2303,4.6225 175.9513,4.6385 C172.4713,4.6845 168.9903,4.6545 165.5113,4.6545 C162.3473,4.6545 159.1833,4.6515 156.0193,4.6565 C154.8353,4.6585 154.0463,5.4665 154.0463,6.6495 C154.0473,8.5345 154.0463,10.4195 154.0473,12.3045 L154.0473,12.7665 Z M154.0423,16.4655 L154.0423,20.2205 L150.25805,20.2205 L150.2583,19.8045 C150.2583,15.3745 150.2573,10.9445 150.2593,6.5145 C150.2603,3.5385 152.6763,1.0355 155.6603,1.0235 C162.5813,0.9955 169.5033,0.9955 176.4243,1.0235 C179.4083,1.0355 181.8233,3.5375 181.8243,6.5155 C181.8253,10.9445 181.8243,15.3745 181.8243,19.8045 L181.8243,20.2185 L178.0533,20.2185 L178.0533,16.4655 L154.0423,16.4655 Z" id="Fill-6" fill="#FFFFFF"></path>
                    <path d="M77.8716,8.78064 L99.0706,8.7806 C99.2286,8.7806 99.3876,8.7816 99.5456,8.7736 C101.0156,8.6946 101.9256,7.0126 101.1846,5.7426 C100.7396,4.9786 100.0786,4.6456 99.1876,4.6466 C92.2186,4.6586 77.8716,4.6536 77.8716,4.6536 L77.8716,8.78064 Z M77.8436,12.4256 L77.8436,20.2256 L74.0996,20.2256 L74.0996,1.0086 C74.0996,1.0086 90.9736,1.0066 99.2116,1.0106 C102.3006,1.0126 104.6346,2.9976 105.0406,6.0276 C105.2506,7.5926 104.8516,9.0336 103.8456,10.2806 C103.7626,10.3826 103.6786,10.4826 103.5996,10.5776 C103.6066,10.6156 103.6036,10.6466 103.6186,10.6626 C104.6916,11.8806 105.1266,13.3076 105.0936,14.9206 L105.0856,20.2106 L101.2966,20.2106 C101.2966,20.2106 101.2976,16.2836 101.2966,14.5306 C101.2956,13.4416 100.5496,12.5986 99.4616,12.4596 C99.3056,12.4396 99.1466,12.4276 98.9896,12.4276 L77.8436,12.4256 Z" id="Fill-8" fill="#FFFFFF"></path>
                    <path d="M114.3139,20.2231 L110.5529,20.2231 L110.5529,1.0091 L116.0239,1.0021 C116.2829,1.0001 116.4239,1.0951 116.5709,1.2931 C120.1899,6.2041 127.7949,16.4961 127.7949,16.4961 C127.7949,16.4961 135.3599,6.2941 138.9919,1.3591 C139.1859,1.0951 139.3809,0.9981 139.7069,1.0011 L145.0669,1.0091 L145.0669,20.2201 L141.3269,20.2201 L141.3269,4.6491 L129.9979,19.7931 C129.7979,20.0601 129.5999,20.1821 129.2529,20.1721 C128.2659,20.1441 127.2769,20.1521 126.2889,20.1691 C126.0069,20.1741 125.8369,20.0861 125.6689,19.8611 L114.3129,4.6601 L114.3139,20.2231 Z" id="Fill-10" fill="#FFFFFF"></path>
                    <g id="Group-14" transform="translate(184.000000, 0.252200)">
                        <mask id="mask-4" fill="white">
                            <use xlink:href="#path-3"></use>
                        </mask>
                        <g id="Clip-13"></g>
                        <polygon id="Fill-12" fill="#FFFFFF" mask="url(#mask-4)" points="32.0005 4.3916 17.9235 4.3916 17.9235 19.9666 14.1395 19.9666 14.1395 4.4156 0.0445 4.4156 0.0445 0.7836 32.0005 0.7836"></polygon>
                    </g>
                </g>
            </g>
        </g>
    </g>
</svg>