<?xml version="1.0" encoding="UTF-8"?>
<svg width="74px" height="42px" viewBox="0 0 74 42" version="1.1" xmlns="http://www.w3.org/2000/svg" xmlns:xlink="http://www.w3.org/1999/xlink">
    <!-- Generator: Sketch 51.2 (57519) - http://www.bohemiancoding.com/sketch -->
    <title>Group</title>
    <desc>Created with Sketch.</desc>
    <defs>
        <polygon id="path-1" points="0 0.530330769 73.1951696 0.530330769 73.1951696 42 0 42"></polygon>
    </defs>
    <g id="Welcome" stroke="none" stroke-width="1" fill="none" fill-rule="evenodd">
        <g id="Main-page" transform="translate(-504.000000, -2556.000000)">
            <g id="Меню-услуг-1" transform="translate(250.000000, 2526.000000)">
                <g id="Group" transform="translate(254.000000, 30.000000)">
                    <g id="Group-3">
                        <mask id="mask-2" fill="white">
                            <use xlink:href="#path-1"></use>
                        </mask>
                        <g id="Clip-2"></g>
                        <path d="M70.8513,30.0014077 C70.8513,31.8057923 69.387387,33.2757923 67.5872565,33.2757923 L63.9805609,33.2757923 C63.4126913,29.6718692 60.322387,26.8966385 56.5789522,26.8966385 C52.8355174,26.8966385 49.7436043,29.6718692 49.1741261,33.2757923 L24.6061261,33.2757923 C24.0382565,29.6718692 20.9479522,26.8966385 17.2029087,26.8966385 C13.4594739,26.8966385 10.3691696,29.6718692 9.8029087,33.2757923 L5.59777826,33.2757923 C3.79925652,33.2757923 2.34660435,31.8057923 2.34660435,30.0014077 L2.34660435,6.62356154 C2.34660435,4.56394615 4.00516957,2.88717692 6.05464783,2.88717692 L54.333213,2.88717692 C56.4068217,2.88717692 58.3050826,4.10517692 59.175387,6.00325385 L63.4915174,15.3692538 C63.5494304,15.4952538 63.6298652,15.6099462 63.7183435,15.7133308 L68.985213,20.9568692 C70.1627783,22.1393308 70.8513,23.7837923 70.8513,25.4492538 L70.8513,30.0014077 Z M56.5789522,39.6436385 C53.7170826,39.6436385 51.4037783,37.3223308 51.4037783,34.4501769 C51.4037783,31.5861 53.7170826,29.2534846 56.5789522,29.2534846 C59.4263435,29.2534846 61.7509087,31.5861 61.7509087,34.4501769 C61.7509087,37.3223308 59.4263435,39.6436385 56.5789522,39.6436385 Z M17.2029087,39.6436385 C14.3523,39.6436385 12.0293435,37.3223308 12.0293435,34.4501769 C12.0293435,31.5861 14.3523,29.2534846 17.2029087,29.2534846 C20.0551261,29.2534846 22.3780826,31.5861 22.3780826,34.4501769 C22.3780826,37.3223308 20.0551261,39.6436385 17.2029087,39.6436385 Z M70.6309087,19.2881769 L65.5265174,14.1851769 L61.3053,5.01463846 C60.0569522,2.28948462 57.3205609,0.530330769 54.333213,0.530330769 L6.05464783,0.530330769 C2.71338696,0.530330769 -0.000482608696,3.26679231 -0.000482608696,6.62356154 L-0.000482608696,30.0014077 C-0.000482608696,33.1061769 2.51551739,35.6326385 5.59777826,35.6326385 L9.8029087,35.6326385 C10.372387,39.2381769 13.4626913,42.0004846 17.2029087,42.0004846 C20.9431261,42.0004846 24.0334304,39.2301 24.6061261,35.6326385 L49.1757348,35.6326385 C49.7468217,39.2381769 52.8387348,42.0004846 56.5789522,42.0004846 C60.3191696,42.0004846 63.4078652,39.2301 63.9789522,35.6326385 L67.5872565,35.6326385 C70.6791696,35.6326385 73.1951696,33.1061769 73.1951696,30.0014077 L73.1951696,25.4492538 C73.1951696,23.1634846 72.2589087,20.9100231 70.6309087,19.2881769 Z" id="Fill-1" fill="#000000" mask="url(#mask-2)"></path>
                    </g>
                    <path d="M50.5165012,17.4146341 L16.3876084,17.4146341 C15.7371936,17.4146341 15.2054795,17.8752236 15.2054795,18.4355138 C15.2054795,19.0028252 15.7371936,19.4634146 16.3876084,19.4634146 L50.5165012,19.4634146 C51.1636639,19.4634146 51.6986301,19.0028252 51.6986301,18.4355138 C51.6986301,17.8752236 51.1636639,17.4146341 50.5165012,17.4146341" id="Fill-4" fill="#000000"></path>
                </g>
            </g>
        </g>
    </g>
</svg>