<?xml version="1.0" encoding="UTF-8"?>
<svg width="17px" height="14px" viewBox="0 0 17 14" version="1.1" xmlns="http://www.w3.org/2000/svg" xmlns:xlink="http://www.w3.org/1999/xlink">
    <!-- Generator: Sketch 51.2 (57519) - http://www.bohemiancoding.com/sketch -->
    <title>Group 12</title>
    <desc>Created with Sketch.</desc>
    <defs>
        <polygon id="path-1" points="0.1016 0.9382 16.403 0.9382 16.403 14.1872 0.1016 14.1872"></polygon>
    </defs>
    <g id="Welcome" stroke="none" stroke-width="1" fill="none" fill-rule="evenodd">
        <g id="Main-page" transform="translate(-360.000000, -512.000000)">
            <g id="Старт-страница" transform="translate(-3.000000, 0.000000)">
                <g id="Соц-сети-иконки" transform="translate(255.000000, 510.000000)">
                    <g id="Group-12" transform="translate(108.000000, 1.289400)">
                        <mask id="mask-2" fill="white">
                            <use xlink:href="#path-1"></use>
                        </mask>
                        <g id="Clip-11"></g>
                        <path d="M5.2286,14.1872 C11.3796,14.1872 14.7446,9.0902 14.7446,4.6712 C14.7446,4.5262 14.7416,4.3822 14.7346,4.2392 C15.3876,3.7662 15.9556,3.1772 16.4036,2.5072 C15.8036,2.7732 15.1596,2.9532 14.4826,3.0332 C15.1726,2.6192 15.7036,1.9642 15.9536,1.1832 C15.3066,1.5662 14.5906,1.8452 13.8296,1.9952 C13.2186,1.3452 12.3496,0.9382 11.3876,0.9382 C9.5406,0.9382 8.0426,2.4362 8.0426,4.2832 C8.0426,4.5452 8.0726,4.8002 8.1296,5.0452 C5.3506,4.9062 2.8856,3.5752 1.2366,1.5512 C0.9486,2.0452 0.7836,2.6192 0.7836,3.2322 C0.7836,4.3922 1.3736,5.4172 2.2716,6.0162 C1.7226,5.9992 1.2076,5.8482 0.7566,5.5982 C0.7556,5.6112 0.7556,5.6252 0.7556,5.6402 C0.7556,7.2602 1.9096,8.6122 3.4396,8.9192 C3.1586,8.9952 2.8626,9.0372 2.5576,9.0372 C2.3416,9.0372 2.1326,9.0152 1.9286,8.9762 C2.3546,10.3052 3.5886,11.2722 5.0526,11.2992 C3.9086,12.1972 2.4656,12.7312 0.8996,12.7312 C0.6286,12.7312 0.3636,12.7162 0.1016,12.6852 C1.5826,13.6332 3.3386,14.1872 5.2286,14.1872" id="Fill-10" fill="#FFFFFF" mask="url(#mask-2)"></path>
                    </g>
                </g>
            </g>
        </g>
    </g>
</svg>