<?xml version="1.0" encoding="UTF-8"?>
<svg width="54px" height="47px" viewBox="0 0 54 47" version="1.1" xmlns="http://www.w3.org/2000/svg" xmlns:xlink="http://www.w3.org/1999/xlink">
    <!-- Generator: Sketch 51.2 (57519) - http://www.bohemiancoding.com/sketch -->
    <title>Group</title>
    <desc>Created with Sketch.</desc>
    <defs>
        <polygon id="path-1" points="0 0.186214063 53.0395714 0.186214063 53.0395714 36.999841 0 36.999841"></polygon>
        <polygon id="path-3" points="0 0.102142857 53.0401974 0.102142857 53.0401974 21.8832518 0 21.8832518"></polygon>
    </defs>
    <g id="Welcome" stroke="none" stroke-width="1" fill="none" fill-rule="evenodd">
        <g id="Main-page" transform="translate(-726.000000, -4525.000000)">
            <g id="Меню-услуг-3" transform="translate(250.000000, 4498.000000)">
                <g id="Group" transform="translate(476.000000, 27.000000)">
                    <g id="Group-3" transform="translate(0.000000, 10.000000)">
                        <mask id="mask-2" fill="white">
                            <use xlink:href="#path-1"></use>
                        </mask>
                        <g id="Clip-2"></g>
                        <path d="M50.8147714,34.7072863 L44.1866571,34.7072863 L44.1866571,19.692802 L50.8147714,24.8423059 L50.8147714,34.7072863 Z M2.22557143,24.8423059 L8.85368571,19.692802 L8.85368571,34.7072863 L2.22557143,34.7072863 L2.22557143,24.8423059 Z M29.9491714,34.7072863 L29.9491714,27.781927 C29.9491714,27.1491691 29.4492857,26.6356496 28.8367714,26.6356496 L24.2051143,26.6356496 C23.5895143,26.6356496 23.0911714,27.1491691 23.0911714,27.781927 L23.0911714,34.7072863 L11.0784857,34.7072863 L11.0784857,14.767466 L26.5194,2.76732539 L41.9618571,14.767466 L41.9618571,34.7072863 L29.9491714,34.7072863 Z M25.3159714,34.7072863 L27.7228286,34.7072863 L27.7228286,28.9282043 L25.3159714,28.9282043 L25.3159714,34.7072863 Z M52.5967714,23.355802 L44.1866571,16.8215441 L44.1866571,14.1967121 C44.1866571,13.8358176 44.0231143,13.4971809 43.7438571,13.2809621 L27.189,0.417536328 C26.7940286,0.109106641 26.2463143,0.109106641 25.8498,0.417536328 L9.29648571,13.2809621 C9.01722857,13.4971809 8.85368571,13.8358176 8.85368571,14.1967121 L8.85368571,16.8215441 L0.443571429,23.355802 C0.164314286,23.5720207 -0.000771428571,23.9122473 -0.000771428571,24.271552 L-0.000771428571,35.8535637 C-0.000771428571,36.4879113 0.499114286,36.999841 1.11317143,36.999841 L51.9287143,36.999841 C52.5427714,36.999841 53.0395714,36.4879113 53.0395714,35.8535637 L53.0395714,24.271552 C53.0395714,23.9122473 52.8760286,23.5720207 52.5967714,23.355802 Z" id="Fill-1" fill="#000000" mask="url(#mask-2)"></path>
                    </g>
                    <g id="Group-6">
                        <mask id="mask-4" fill="white">
                            <use xlink:href="#path-3"></use>
                        </mask>
                        <g id="Clip-5"></g>
                        <path d="M1.78230857,21.6542857 L26.5189371,2.65414286 L51.2571086,21.6542857 C51.45768,21.8082857 51.6937371,21.8821429 51.9267086,21.8821429 C52.2645943,21.8821429 52.5978514,21.7281429 52.8153943,21.4327143 C53.18568,20.933 53.08848,20.2211429 52.5978514,19.844 L27.19008,0.33 C26.7935657,0.0251428571 26.2458514,0.0251428571 25.85088,0.33 L0.443108571,19.844 C-0.0490628571,20.2211429 -0.146262857,20.933 0.224022857,21.4327143 C0.594308571,21.9324286 1.29322286,22.0314286 1.78230857,21.6542857" id="Fill-4" fill="#000000" mask="url(#mask-4)"></path>
                    </g>
                </g>
            </g>
        </g>
    </g>
</svg>