<?xml version="1.0" encoding="UTF-8"?>
<svg width="50px" height="48px" viewBox="0 0 50 48" version="1.1" xmlns="http://www.w3.org/2000/svg" xmlns:xlink="http://www.w3.org/1999/xlink">
    <!-- Generator: Sketch 51.2 (57519) - http://www.bohemiancoding.com/sketch -->
    <title>Fill 1</title>
    <desc>Created with Sketch.</desc>
    <defs></defs>
    <g id="Welcome" stroke="none" stroke-width="1" fill="none" fill-rule="evenodd">
        <g id="Main-page" transform="translate(-949.000000, -6496.000000)" fill="#000000">
            <g id="Меню-услуг-5" transform="translate(250.000000, 6470.000000)">
                <g id="Group" transform="translate(699.000000, 26.000000)">
                    <path d="M2.81903672,19.1743917 L13.5731392,29.736838 C13.7823463,29.9432937 13.8783522,30.2435928 13.8310657,30.5337858 L11.2919225,45.446239 L24.5851682,38.4050894 C24.8416618,38.2693773 25.1526065,38.2693773 25.4162647,38.4050894 L38.7080775,45.446239 L36.1689343,30.5337858 C36.1202148,30.2435928 36.2176537,29.9432937 36.4268608,29.736838 L47.1809633,19.1743917 L32.3200976,16.9986663 C32.026348,16.9553539 31.777019,16.7705544 31.6466228,16.5063489 L24.9992835,2.94091076 L18.3533772,16.5063489 C18.2215481,16.7748857 17.9679203,16.9596852 17.6813353,16.9986663 L2.81903672,19.1743917 Z M10.1025947,47.9944509 C9.91488155,47.9944509 9.73146715,47.9381448 9.57527832,47.8240888 C9.29729086,47.6205206 9.16402883,47.2812403 9.21991291,46.9434037 L11.9854582,30.6954854 L0.27129598,19.1917166 C0.0262657968,18.950611 -0.0611426312,18.592562 0.0434608973,18.2677191 C0.149497351,17.9414325 0.428917735,17.7032144 0.769953897,17.6555708 L16.9548423,15.2820522 L24.1954126,0.500979889 C24.3487356,0.193461974 24.6582474,0 24.9992835,0 C25.3403197,0 25.6512644,0.193461974 25.7988557,0.500979889 L33.0408589,15.2820522 L49.231479,17.6555708 C49.5682164,17.7032144 49.8462039,17.9414325 49.9565391,18.2677191 C50.0611426,18.592562 49.9737342,18.9534985 49.728704,19.1917166 L38.0131088,30.6954854 L40.7786542,46.9434037 C40.8359712,47.2812403 40.6969774,47.6248519 40.4204229,47.8284201 C40.1467342,48.0305445 39.7827713,48.056532 39.481857,47.8933886 L24.9992835,40.2242095 L10.518143,47.8933886 C10.3863139,47.9641322 10.2430214,47.9944509 10.1025947,47.9944509 Z" id="Fill-1"></path>
                </g>
            </g>
        </g>
    </g>
</svg>