<svg width="46" height="46" viewBox="0 0 46 46" xmlns="http://www.w3.org/2000/svg" xmlns:xlink="http://www.w3.org/1999/xlink"><title>Group</title><defs><path id="a" d="M.221.471h25.51V46H.22z"/><path id="c" d="M0 .82h3.586v12.535H0z"/></defs><g fill="none" fill-rule="evenodd"><g transform="translate(10)"><mask id="b" fill="#fff"><use xlink:href="#a"/></mask><path d="M24.229 5.025H1.725V3.813c0-1.003.808-1.823 1.806-1.823h18.892c.997 0 1.806.82 1.806 1.823v1.212zM1.725 35.378h22.504V6.538H1.725v28.84zm22.504 7.28a1.817 1.817 0 0 1-1.806 1.823H3.53a1.816 1.816 0 0 1-1.806-1.822v-5.766h22.504v5.766zM22.423.472H3.53C1.705.47.221 1.97.221 3.813V42.66c0 1.84 1.484 3.34 3.31 3.34h18.892c1.824 0 3.308-1.5 3.308-3.34V3.813c0-1.841-1.484-3.342-3.309-3.342z" fill="#858585" mask="url(#b)"/></g><path d="M23 38.501c.828 0 1.503.673 1.503 1.497 0 .826-.675 1.5-1.502 1.5a1.505 1.505 0 0 1-1.504-1.5c0-.824.675-1.497 1.504-1.497M23 43c1.657 0 3-1.348 3-3.002A3.002 3.002 0 0 0 23 37c-1.657 0-3 1.348-3 2.998A3.004 3.004 0 0 0 23 43m.167-40h-3.332c-.46 0-.835.448-.835 1s.376 1 .835 1h3.332c.459 0 .833-.448.833-1s-.374-1-.833-1m2.165 0h-.667C24.297 3 24 3.448 24 4s.297 1 .665 1h.667c.37 0 .668-.448.668-1s-.298-1-.668-1M43.34 4.224a.796.796 0 0 0-1.108 0c-.31.3-.31.783 0 1.082a7.232 7.232 0 0 1 0 10.389.747.747 0 0 0 0 1.083.785.785 0 0 0 .553.222.791.791 0 0 0 .555-.222 8.736 8.736 0 0 0 0-12.554m-4.124 1.008a.664.664 0 0 0-1.008 0 .844.844 0 0 0 0 1.11c.879.978 1.367 2.275 1.367 3.66 0 1.381-.488 2.678-1.367 3.652a.85.85 0 0 0 0 1.115.677.677 0 0 0 .504.231.68.68 0 0 0 .504-.231C40.365 13.495 41 11.803 41 10.002c0-1.804-.631-3.5-1.784-4.77" fill="#858585"/><g transform="translate(0 3)"><mask id="d" fill="#fff"><use xlink:href="#c"/></mask><path d="M3.377 2.08a.755.755 0 0 0 0-1.043.678.678 0 0 0-.993 0c-3.179 3.339-3.179 8.765 0 12.103a.682.682 0 0 0 .993 0 .755.755 0 0 0 0-1.043c-2.63-2.76-2.63-7.254 0-10.017" fill="#858585" mask="url(#d)"/></g><path d="M6.792 5.232a.665.665 0 0 0-1.01 0C4.638 6.507 4 8.199 4 10.002c0 1.802.637 3.498 1.783 4.768a.68.68 0 0 0 .506.23.68.68 0 0 0 .503-.23.846.846 0 0 0 0-1.112c-.88-.973-1.367-2.273-1.367-3.656 0-1.38.485-2.68 1.367-3.654a.852.852 0 0 0 0-1.116" fill="#858585"/></g></svg>