<svg width="17" height="17" viewBox="0 0 17 17" xmlns="http://www.w3.org/2000/svg" xmlns:xlink="http://www.w3.org/1999/xlink"><title>Group 2</title><defs><path id="a" d="M.414.711h16.29V17H.414z"/></defs><g fill="none" fill-rule="evenodd"><g transform="translate(0 -.71)"><mask id="b" fill="#fff"><use xlink:href="#a"/></mask><path d="M15.259 12.505a3.053 3.053 0 0 1-3.051 3.05h-7.3a3.053 3.053 0 0 1-3.048-3.05v-7.3a3.053 3.053 0 0 1 3.049-3.05h7.299a3.053 3.053 0 0 1 3.05 3.05v7.3zM12.208.71h-7.3A4.5 4.5 0 0 0 .415 5.206v7.299A4.5 4.5 0 0 0 4.909 17h7.299a4.5 4.5 0 0 0 4.496-4.495v-7.3A4.5 4.5 0 0 0 12.208.712z" fill="#FFF" mask="url(#b)"/></g><path d="M8.559 10.896a2.755 2.755 0 0 1-2.752-2.752 2.755 2.755 0 0 1 2.752-2.752 2.755 2.755 0 0 1 2.753 2.752 2.755 2.755 0 0 1-2.753 2.752m0-6.949a4.202 4.202 0 0 0-4.197 4.197 4.202 4.202 0 0 0 4.197 4.198 4.203 4.203 0 0 0 4.198-4.198 4.203 4.203 0 0 0-4.198-4.197m4.374-1.225c-.278 0-.552.113-.75.31a1.067 1.067 0 0 0-.311.75 1.067 1.067 0 0 0 1.061 1.06 1.065 1.065 0 0 0 1.06-1.06c0-.279-.113-.553-.311-.75a1.065 1.065 0 0 0-.75-.31" fill="#FFF"/></g></svg>