<svg width="76" height="94" viewBox="0 0 76 94" xmlns="http://www.w3.org/2000/svg"><title>Group</title><g fill="none" fill-rule="evenodd"><path fill="#000" d="M0 69h76V0H0z"/><path fill="#858585" d="M0 94h76V69H0z"/><path d="M20.28 35.155l-2.788-4.829h16.394l-.696-1.205H16.795l-2.788-4.83h16.37l-.697-1.204H13.313l-2.79-4.83h21.569l7.337 12.708a3.612 3.612 0 0 0-3.434 4.19H20.28zm8.31 1.204h7.833a3.615 3.615 0 0 0 2.532 1.77v4.974l1.072 1.857-2.49 4.312-2.8-4.85h-6.475l.613 1.205h5.167l3.556 6.158-3.778 6.541h-3.443v1.205h10.835l2.026 3.511h-1.939l-1.11-1.926h-1.392l1.112 1.926H38.08l-1.112-1.926h-1.392l1.113 1.926H21.137l6.982-12.091h-1.392l-6.98 12.091h-3.91l-1.325-2.296L28.59 36.359zm8.561-1.788a2.408 2.408 0 0 1 2.405-2.405 2.408 2.408 0 0 1 2.404 2.405 2.408 2.408 0 0 1-2.404 2.405 2.408 2.408 0 0 1-2.405-2.405zm3.008 8.208v-4.65a3.613 3.613 0 0 0 3.006-3.558 3.615 3.615 0 0 0-2.176-3.313l-4.726-8.186 7.692-13.323h1.764l-.936 1.618h1.391l1.984-3.435 1.049 1.817h4.63l2.452 4.245h4.244l-1.876 3.252a3.602 3.602 0 0 0-3.337-1.615 3.628 3.628 0 0 0-3.285 3.341 3.587 3.587 0 0 0 .96 2.717 3.627 3.627 0 0 0 2.44 1.142l-1.627 2.818-1.894-3.28h-5.359l3.307 5.728v12.446l-2.737 4.74 8.226 14.248h2.858l2.027 3.511h-1.838l-1.112-1.926h-1.39l1.11 1.926H55.18l-1.111-1.926h-1.392l1.113 1.926h-1.932L40.159 42.78zm8.704 1.902l8.531-14.77h7.746l-2.312 4h-3.15l-6.215 10.77h-4.6zm-28.906-8.322h7.242L13.298 60.44a.615.615 0 0 0 .002.617l1.666 2.885a.61.61 0 0 0 .53.306h29.83l-3.42-5.92h-6.694l3.776-6.542-.754-1.308 2.488-4.312 10.44 18.082h11.162l-3.418-5.92h-2.86l-7.183-12.441h5.296l6.216-10.77h3.149l3.703-6.411H56.7l-5.631 9.752V27.774l-2.426-4.2h2.576l2.06 3.567a.613.613 0 0 0 1.06 0l3.392-5.876a.1.1 0 0 0-.118-.146l-1.238.397-.046.014a2.438 2.438 0 0 1-1.018.08 2.4 2.4 0 0 1-2.075-2.555 2.415 2.415 0 0 1 2.187-2.223 2.397 2.397 0 0 1 2.565 1.89l.27 1.241a.11.11 0 0 0 .205.031l3.616-6.265a.629.629 0 0 0-.208-.843.645.645 0 0 0-.348-.096h-4.537l-2.451-4.246h-4.632l-1.205-2.09a.624.624 0 0 0-1.078.002l-1.206 2.088H43.26l-7.692 13.323-2.59-4.485a.66.66 0 0 0-.57-.329H9.612a.67.67 0 0 0-.594 1.004l10.381 17.98a.648.648 0 0 0 .559.322z" fill="#D2D4D8"/><path d="M13.24 74c.81 0 1.565.267 2.154.74.064.044.074.098.027.16l-.46.553c-.055.062-.12.071-.193.009-.414-.321-.948-.5-1.583-.5-.626 0-.967.17-.967.446 0 .285.277.428 1.114.508 1.289.116 2.218.535 2.218 1.551 0 .972-.938 1.533-2.2 1.533-.92 0-1.638-.214-2.3-.749-.065-.044-.065-.107-.01-.178l.433-.561c.055-.072.12-.08.184-.027.506.383.985.552 1.712.552.773 0 1.123-.222 1.123-.552 0-.348-.35-.5-1.28-.58-1.233-.098-2.052-.454-2.052-1.461 0-.883.874-1.444 2.08-1.444zm8.069.071h1.058c.083 0 .13.045.13.125v4.608c0 .08-.047.125-.13.125h-.81c-.082 0-.128-.045-.128-.125v-1.765l.046-1.328-.056-.009-.736 1.836-.57 1.302c-.028.062-.084.089-.148.089h-.626c-.064 0-.12-.027-.147-.09l-.543-1.3-.755-1.846-.055.01.046 1.336v1.765c0 .08-.046.125-.129.125h-.773c-.083 0-.129-.045-.129-.125v-4.608c0-.08.046-.125.129-.125h1.077c.064 0 .12.036.147.098l.736 1.631.737 1.8h.037l.727-1.8.7-1.63c.027-.063.082-.099.165-.099zm6.682 4.733l-.35-.838h-2.503l-.35.856a.157.157 0 0 1-.156.107h-.911c-.092 0-.12-.045-.092-.125l2.172-4.661c.018-.045.055-.072.12-.072h1.049c.064 0 .101.027.12.072l2.07 4.643c.028.071-.018.143-.1.143h-.875a.2.2 0 0 1-.194-.125zm-1.629-3.77l-.837 1.996h1.749l-.81-1.996h-.102zm4.05-.963h2.265c1.113 0 1.97.767 1.97 1.774 0 .642-.36 1.194-.884 1.488l.791 1.47c.037.063-.009.126-.082.126h-.902c-.074 0-.13-.027-.166-.09l-.617-1.212a.873.873 0 0 1-.147.01h-1.289v1.167c0 .08-.046.125-.128.125h-.81c-.083 0-.13-.045-.13-.125v-4.608c0-.08.047-.125.13-.125zm.94 2.585h1.325c.58 0 .902-.357.902-.811 0-.455-.322-.793-.902-.793H31.35v1.604zm4.248-2.585h4.271c.083 0 .129.045.129.125v.73c0 .081-.046.126-.129.126H38.27v3.752c0 .08-.046.125-.13.125h-.81c-.082 0-.128-.045-.128-.125v-3.752H35.6c-.082 0-.128-.045-.128-.125v-.73c0-.081.046-.126.128-.126zM13.23 83c.806 0 1.557.267 2.143.74.064.044.074.098.028.16l-.458.553c-.055.062-.12.071-.193.009-.412-.321-.943-.5-1.575-.5-.623 0-.962.17-.962.446 0 .285.275.428 1.108.508 1.283.116 2.208.535 2.208 1.551 0 .972-.934 1.533-2.19 1.533-.916 0-1.63-.214-2.29-.749-.064-.044-.064-.107-.009-.178l.43-.561c.056-.072.12-.08.184-.027.504.383.98.552 1.704.552.77 0 1.118-.222 1.118-.552 0-.348-.349-.5-1.274-.58-1.227-.098-2.043-.454-2.043-1.461 0-.883.87-1.444 2.07-1.444zm3.725.071h3.71c.083 0 .128.045.128.125v.713c0 .08-.045.125-.128.125H17.89v.909h2.437c.083 0 .128.045.128.125v.713c0 .08-.045.125-.128.125H17.89v1.051h2.85c.082 0 .128.045.128.125v.722c0 .08-.046.125-.129.125h-3.783c-.082 0-.128-.045-.128-.125v-4.608c0-.071.064-.125.128-.125zM24.33 83c.861 0 1.74.419 2.18 1.15.037.062.028.107-.018.142l-.577.428c-.064.063-.138.027-.174-.018-.376-.499-.788-.722-1.411-.722-.916 0-1.52.624-1.52 1.507 0 .882.613 1.533 1.52 1.533.623 0 1.063-.214 1.438-.75.046-.044.092-.044.147 0l.577.447c.046.044.055.098.018.142-.467.749-1.264 1.141-2.18 1.141-1.466 0-2.583-1.078-2.583-2.513 0-1.435 1.117-2.487 2.583-2.487zm3.363 2.79v-2.594c0-.08.046-.125.129-.125h.806c.082 0 .128.045.128.125v2.585c0 .722.412 1.239 1.173 1.239.742 0 1.182-.49 1.182-1.24v-2.584c0-.08.045-.125.128-.125h.806c.082 0 .128.045.128.125v2.594c0 1.256-.86 2.21-2.244 2.21-1.374 0-2.236-.954-2.236-2.21zm6.107-2.72h2.253c1.109 0 1.96.767 1.96 1.774 0 .642-.356 1.194-.879 1.488l.788 1.47c.037.063-.009.126-.082.126h-.898c-.073 0-.128-.027-.165-.09l-.614-1.212c-.064.01-.11.01-.146.01h-1.283v1.167c0 .08-.046.125-.128.125H33.8c-.083 0-.128-.045-.128-.125v-4.608c0-.08.045-.125.128-.125zm.934 2.585h1.32c.577 0 .897-.357.897-.811 0-.455-.32-.793-.898-.793h-1.319v1.604zm4.769-2.585h.806c.083 0 .128.045.128.125v4.608c0 .08-.045.125-.128.125h-.806c-.082 0-.128-.045-.128-.125v-4.608c0-.08.046-.125.128-.125zm2.088 0h4.251c.082 0 .128.045.128.125v.73c0 .081-.046.126-.128.126h-1.594v3.752c0 .08-.046.125-.128.125h-.806c-.083 0-.129-.045-.129-.125v-3.752H41.59c-.082 0-.128-.045-.128-.125v-.73c0-.081.046-.126.128-.126zm8.347 3.619v1.114c0 .08-.045.125-.128.125h-.806c-.083 0-.128-.045-.128-.125V86.69l-2.07-3.52c-.028-.045 0-.099.063-.099h1.008c.046 0 .092.027.12.072l1.4 2.522h.065l1.337-2.513c.028-.054.065-.08.129-.08h.998c.064 0 .092.044.064.106l-2.052 3.512z" fill="#000"/></g></svg>