<svg width="67" height="127" viewBox="0 0 67 127" xmlns="http://www.w3.org/2000/svg"><title>Group</title><g fill="none" fill-rule="evenodd"><path fill="#9B9B9B" d="M0 104.228h66.246V60.522H0z"/><path fill="#000" d="M0 60.521h66.246V0H0zm0 65.57h66.246v-21.863H0z"/><path d="M17.642 30.225l-2.416-4.185h14.208l-.603-1.044H14.622l-2.416-4.186h14.187l-.604-1.044H11.604l-2.417-4.185H27.88l6.36 11.013a3.13 3.13 0 0 0-2.977 3.631h-13.62zm7.203 1.044h6.788a3.133 3.133 0 0 0 2.194 1.533v4.311l.93 1.61-2.159 3.737-2.426-4.203H24.56l.531 1.044h4.478l3.082 5.337-3.274 5.67h-2.984v1.043h9.39l1.756 3.043h-1.68l-.963-1.669H33.69l.964 1.67H33.07l-.964-1.67H30.9l.964 1.67H18.385l6.051-10.48H23.23l-6.05 10.48h-3.388l-1.149-1.99 12.202-21.136zm7.42-1.55c0-1.149.935-2.084 2.083-2.084 1.15 0 2.084.935 2.084 2.084a2.087 2.087 0 0 1-2.084 2.084 2.087 2.087 0 0 1-2.084-2.084zm2.606 7.114v-4.03a3.132 3.132 0 0 0 2.605-3.084 3.133 3.133 0 0 0-1.886-2.87l-4.096-7.096 6.667-11.546h1.528l-.81 1.402h1.205l1.72-2.977.908 1.575h4.013l2.125 3.68h3.678l-1.626 2.817a3.122 3.122 0 0 0-2.892-1.4 3.144 3.144 0 0 0-2.847 2.896c-.06.878.236 1.714.833 2.355.55.59 1.313.944 2.114.99l-1.41 2.442-1.642-2.843h-4.644l2.866 4.964v10.787l-2.372 4.108 7.13 12.348h2.476l1.757 3.043h-1.593l-.964-1.669H48.51l.963 1.67h-1.584l-.963-1.67H45.72l.964 1.67H45.01L34.871 36.832zm7.543 1.648l7.394-12.8h6.713l-2.004 3.466h-2.729l-5.387 9.334h-3.987zM17.362 31.27h6.277L11.591 52.14a.533.533 0 0 0 .002.534l1.444 2.5c.09.161.268.265.46.265h25.851l-2.963-5.13h-5.802l3.273-5.67-.654-1.134 2.157-3.737 9.048 15.671h9.673l-2.962-5.13H48.64l-6.226-10.783h4.59l5.387-9.333h2.73l3.21-5.557h-9.126l-4.88 8.452v-9.259l-2.102-3.639h2.232l1.785 3.091a.532.532 0 0 0 .92 0l2.94-5.093a.087.087 0 0 0-.103-.126l-1.073.344-.04.012a2.113 2.113 0 0 1-.882.07 2.08 2.08 0 0 1-1.798-2.214 2.093 2.093 0 0 1 1.895-1.928 2.077 2.077 0 0 1 2.223 1.638l.234 1.076a.096.096 0 0 0 .177.027l3.134-5.43a.545.545 0 0 0-.18-.73.559.559 0 0 0-.302-.084h-3.932l-2.124-3.68h-4.014l-1.045-1.81a.54.54 0 0 0-.934.002l-1.045 1.808h-2.734L30.891 18.71l-2.244-3.887a.572.572 0 0 0-.494-.285H8.396a.58.58 0 0 0-.515.87l8.997 15.583c.1.172.285.28.484.28z" fill="#D2D4D8"/><path d="M61.085 75.534h-6.238c-.096-.402-.15-.81-.29-1.186-.564-1.503-1.85-2.375-3.528-2.376a32923.25 32923.25 0 0 0-35.833.001c-2.07.002-3.686 1.596-3.692 3.578-.006 2.016 1.612 3.603 3.73 3.604 11.807.008 23.614.012 35.42 0 3.213-.004 5.96 1.057 8.039 3.535 2.51 2.992 3.162 6.398 1.709 10.043-1.461 3.667-4.237 5.784-8.174 6.317-.476.066-.962.076-1.444.078-11.783.002-23.567-.033-35.35.018-5.193.022-9.122-3.556-10.074-8.03-.131-.622-.166-1.264-.252-1.952h6.15c.394.801.666 1.562 1.108 2.204.684.99 1.717 1.415 2.917 1.415 11.899 0 23.797.004 35.696-.007 1.902-.002 3.359-1.192 3.734-2.959.325-1.531-.55-3.261-2.12-3.93-.63-.269-1.378-.36-2.072-.362-11.693-.02-23.384-.025-35.076-.008-3.477.005-6.351-1.248-8.37-4.09-2.302-3.245-2.622-6.772-.826-10.347 1.759-3.502 4.71-5.406 8.617-5.428 12.197-.069 24.394-.057 36.59-.007 4.9.02 9.155 4.054 9.625 8.922.028.294.004.594.004.968" fill="#000"/><text font-family="Affect-Bold, Affect" font-size="7.947" font-weight="bold" letter-spacing=".331" fill="#D2D4D8"><tspan x="9.36" y="111.638">S</tspan> <tspan x="14.173" y="111.638" letter-spacing=".207">MA</tspan> <tspan x="25.768" y="111.638" letter-spacing=".236">R</tspan> <tspan x="30.565" y="111.638" letter-spacing=".207">T</tspan></text><text font-family="Affect-Bold, Affect" font-size="7.947" font-weight="bold" letter-spacing=".331" fill="#D2D4D8"><tspan x="9.707" y="119.052">S</tspan> <tspan x="14.52" y="119.052" letter-spacing=".207">E</tspan> <tspan x="18.946" y="119.052" letter-spacing=".248">C</tspan> <tspan x="23.946" y="119.052" letter-spacing=".345">U</tspan> <tspan x="29.131" y="119.052" letter-spacing=".306">R</tspan> <tspan x="34.079" y="119.052" letter-spacing=".254">I</tspan> <tspan x="36.208" y="119.052" letter-spacing=".351">T</tspan> <tspan x="40.707" y="119.052" letter-spacing=".207">Y</tspan></text></g></svg>