<svg width="67" height="127" viewBox="0 0 67 127" xmlns="http://www.w3.org/2000/svg"><title>Group</title><g fill="none" fill-rule="evenodd"><path fill="#9B9B9B" d="M0 104.228h66.246V60.522H0z"/><path fill="#000" d="M0 60.521h66.246V0H0zm0 65.57h66.246v-21.863H0z"/><path d="M17.642 30.225l-2.416-4.185h14.208l-.603-1.044H14.622l-2.416-4.186h14.187l-.604-1.044H11.604l-2.417-4.185H27.88l6.36 11.013a3.13 3.13 0 0 0-2.977 3.631h-13.62zm7.203 1.044h6.788a3.133 3.133 0 0 0 2.194 1.533v4.311l.93 1.61-2.159 3.737-2.426-4.203H24.56l.531 1.044h4.478l3.082 5.337-3.274 5.67h-2.984v1.043h9.39l1.756 3.043h-1.68l-.963-1.669H33.69l.964 1.67H33.07l-.964-1.67H30.9l.964 1.67H18.385l6.051-10.48H23.23l-6.05 10.48h-3.388l-1.149-1.99 12.202-21.136zm7.42-1.55c0-1.149.935-2.084 2.083-2.084 1.15 0 2.084.935 2.084 2.084a2.087 2.087 0 0 1-2.084 2.084 2.087 2.087 0 0 1-2.084-2.084zm2.606 7.114v-4.03a3.132 3.132 0 0 0 2.605-3.084 3.133 3.133 0 0 0-1.886-2.87l-4.096-7.096 6.667-11.546h1.528l-.81 1.402h1.205l1.72-2.977.908 1.575h4.013l2.125 3.68h3.678l-1.626 2.817a3.122 3.122 0 0 0-2.892-1.4 3.144 3.144 0 0 0-2.847 2.896c-.06.878.236 1.714.833 2.355.55.59 1.313.944 2.114.99l-1.41 2.442-1.642-2.843h-4.644l2.866 4.964v10.787l-2.372 4.108 7.13 12.348h2.476l1.757 3.043h-1.593l-.964-1.669H48.51l.963 1.67h-1.584l-.963-1.67H45.72l.964 1.67H45.01L34.871 36.832zm7.543 1.648l7.394-12.8h6.713l-2.004 3.466h-2.729l-5.387 9.334h-3.987zM17.362 31.27h6.277L11.591 52.14a.533.533 0 0 0 .002.534l1.444 2.5c.09.161.268.265.46.265h25.851l-2.963-5.13h-5.802l3.273-5.67-.654-1.134 2.157-3.737 9.048 15.671h9.673l-2.962-5.13H48.64l-6.226-10.783h4.59l5.387-9.333h2.73l3.21-5.557h-9.126l-4.88 8.452v-9.259l-2.102-3.639h2.232l1.785 3.091a.532.532 0 0 0 .92 0l2.94-5.093a.087.087 0 0 0-.103-.126l-1.073.344-.04.012a2.113 2.113 0 0 1-.882.07 2.08 2.08 0 0 1-1.798-2.214 2.093 2.093 0 0 1 1.895-1.928 2.077 2.077 0 0 1 2.223 1.638l.234 1.076a.096.096 0 0 0 .177.027l3.134-5.43a.545.545 0 0 0-.18-.73.559.559 0 0 0-.302-.084h-3.932l-2.124-3.68h-4.014l-1.045-1.81a.54.54 0 0 0-.934.002l-1.045 1.808h-2.734L30.891 18.71l-2.244-3.887a.572.572 0 0 0-.494-.285H8.396a.58.58 0 0 0-.515.87l8.997 15.583c.1.172.285.28.484.28z" fill="#D2D4D8"/><path d="M61.085 75.534h-6.238c-.096-.402-.15-.81-.29-1.186-.564-1.503-1.85-2.375-3.528-2.376a32923.25 32923.25 0 0 0-35.833.001c-2.07.002-3.686 1.596-3.692 3.578-.006 2.016 1.612 3.603 3.73 3.604 11.807.008 23.614.012 35.42 0 3.213-.004 5.96 1.057 8.039 3.535 2.51 2.992 3.162 6.398 1.709 10.043-1.461 3.667-4.237 5.784-8.174 6.317-.476.066-.962.076-1.444.078-11.783.002-23.567-.033-35.35.018-5.193.022-9.122-3.556-10.074-8.03-.131-.622-.166-1.264-.252-1.952h6.15c.394.801.666 1.562 1.108 2.204.684.99 1.717 1.415 2.917 1.415 11.899 0 23.797.004 35.696-.007 1.902-.002 3.359-1.192 3.734-2.959.325-1.531-.55-3.261-2.12-3.93-.63-.269-1.378-.36-2.072-.362-11.693-.02-23.384-.025-35.076-.008-3.477.005-6.351-1.248-8.37-4.09-2.302-3.245-2.622-6.772-.826-10.347 1.759-3.502 4.71-5.406 8.617-5.428 12.197-.069 24.394-.057 36.59-.007 4.9.02 9.155 4.054 9.625 8.922.028.294.004.594.004.968" fill="#000"/><path d="M11.53 107.243c.699 0 1.35.239 1.859.66.056.04.063.087.024.143l-.398.492c-.047.056-.103.064-.167.008-.357-.286-.818-.445-1.366-.445-.54 0-.835.151-.835.398 0 .254.239.381.962.453 1.112.103 1.915.477 1.915 1.382 0 .867-.81 1.367-1.9 1.367-.794 0-1.414-.19-1.986-.667-.056-.04-.056-.096-.008-.16l.374-.5c.047-.063.103-.071.158-.024.438.342.85.493 1.479.493.667 0 .97-.199.97-.493 0-.31-.303-.445-1.106-.516-1.064-.088-1.772-.405-1.772-1.303 0-.787.755-1.288 1.796-1.288zm6.966.064h.914c.071 0 .111.04.111.111v4.109c0 .071-.04.11-.111.11h-.7c-.071 0-.11-.039-.11-.11v-1.574l.039-1.184-.048-.008-.635 1.637-.493 1.16c-.024.056-.072.08-.127.08h-.54c-.056 0-.104-.024-.128-.08l-.469-1.16-.651-1.645-.048.008.04 1.192v1.574c0 .071-.04.11-.112.11h-.667c-.072 0-.111-.039-.111-.11v-4.109c0-.072.04-.111.11-.111h.93c.056 0 .104.032.128.087l.636 1.454.635 1.606h.032l.628-1.606.604-1.454c.024-.055.071-.087.143-.087zm5.77 4.22l-.302-.747h-2.162l-.302.762a.136.136 0 0 1-.135.096h-.787c-.08 0-.103-.04-.08-.111l1.876-4.157c.016-.04.048-.063.104-.063h.906c.055 0 .087.024.103.063l1.788 4.14c.024.064-.016.128-.087.128h-.755a.172.172 0 0 1-.167-.111zm-1.407-3.362l-.723 1.78h1.51l-.7-1.78h-.087zm3.497-.858h1.955c.962 0 1.7.683 1.7 1.581a1.53 1.53 0 0 1-.762 1.327l.683 1.312c.032.055-.008.11-.071.11h-.779c-.064 0-.111-.023-.143-.079l-.533-1.08c-.055.007-.095.007-.127.007h-1.112v1.042c0 .071-.04.11-.111.11h-.7c-.071 0-.111-.039-.111-.11v-4.109c0-.072.04-.111.111-.111zm.81 2.304h1.145c.5 0 .779-.318.779-.723 0-.405-.278-.707-.779-.707h-1.144v1.43zm3.67-2.304h3.687c.071 0 .111.04.111.111v.652c0 .071-.04.11-.111.11H33.14v3.347c0 .071-.04.11-.111.11h-.7c-.071 0-.11-.039-.11-.11v-3.346h-1.384c-.071 0-.11-.04-.11-.111v-.652c0-.072.039-.111.11-.111zm-18.96 7.351c.7 0 1.351.238 1.86.66.055.039.063.087.024.142l-.398.493c-.047.056-.103.064-.167.008-.357-.286-.818-.445-1.367-.445-.54 0-.834.15-.834.397 0 .255.238.382.962.453 1.112.103 1.915.477 1.915 1.383 0 .866-.81 1.367-1.9 1.367-.794 0-1.414-.19-1.986-.668-.056-.04-.056-.095-.008-.159l.373-.5c.048-.064.104-.072.16-.024.436.342.85.493 1.477.493.668 0 .97-.2.97-.493 0-.31-.302-.445-1.105-.517-1.065-.087-1.772-.405-1.772-1.303 0-.787.755-1.287 1.796-1.287zm3.232.063h3.218c.072 0 .111.04.111.111v.636c0 .072-.04.111-.11.111h-2.409v.811h2.114c.072 0 .111.04.111.111v.636c0 .072-.04.111-.11.111h-2.115v.938h2.472c.071 0 .111.04.111.111v.644c0 .072-.04.111-.111.111h-3.282c-.072 0-.112-.04-.112-.111v-4.109c0-.063.056-.11.112-.11zm6.397-.063c.747 0 1.51.373 1.892 1.025.032.055.024.095-.016.127l-.5.381c-.056.056-.12.024-.152-.016-.326-.445-.683-.643-1.224-.643-.794 0-1.319.556-1.319 1.343 0 .787.533 1.367 1.32 1.367.54 0 .921-.191 1.247-.668.04-.04.08-.04.127 0l.5.397c.04.04.049.088.017.128-.406.667-1.097 1.017-1.892 1.017-1.271 0-2.24-.962-2.24-2.241 0-1.28.969-2.217 2.24-2.217zm2.918 2.487v-2.313c0-.071.04-.11.111-.11h.7c.071 0 .11.039.11.11v2.305c0 .644.359 1.105 1.018 1.105.644 0 1.025-.437 1.025-1.105v-2.305c0-.071.04-.11.112-.11h.699c.071 0 .111.039.111.11v2.313c0 1.12-.747 1.97-1.947 1.97-1.192 0-1.939-.85-1.939-1.97zm5.296-2.424h1.955c.962 0 1.7.684 1.7 1.582a1.53 1.53 0 0 1-.762 1.327l.683 1.311c.032.056-.008.111-.071.111h-.779a.15.15 0 0 1-.143-.08l-.532-1.08c-.056.008-.096.008-.128.008H30.53v1.041c0 .072-.04.111-.111.111h-.7c-.071 0-.111-.04-.111-.111v-4.109c0-.071.04-.11.111-.11zm.81 2.305h1.145c.5 0 .779-.318.779-.723 0-.406-.278-.708-.779-.708H30.53v1.43zm4.138-2.305h.699c.071 0 .111.04.111.111v4.109c0 .072-.04.111-.111.111h-.7c-.07 0-.11-.04-.11-.111v-4.109c0-.071.04-.11.11-.11zm1.811 0h3.687c.072 0 .112.04.112.111v.652c0 .072-.04.111-.112.111h-1.382v3.346c0 .072-.04.111-.112.111h-.699c-.071 0-.111-.04-.111-.111v-3.346h-1.383c-.071 0-.111-.04-.111-.11v-.653c0-.071.04-.11.111-.11zm7.24 3.227v.993c0 .072-.039.111-.11.111h-.7c-.071 0-.111-.04-.111-.111v-.993l-1.796-3.14c-.024-.04 0-.087.056-.087h.874c.04 0 .08.024.103.064l1.216 2.249h.056l1.16-2.241c.024-.048.055-.072.111-.072h.866c.056 0 .08.04.056.096l-1.78 3.13z" fill="#D2D4D8"/></g></svg>