<svg width="105" height="105" viewBox="0 0 105 105" xmlns="http://www.w3.org/2000/svg" xmlns:xlink="http://www.w3.org/1999/xlink"><title>Грифон</title><defs><path id="a" d="M0 0h105v105H0z"/></defs><g fill="none" fill-rule="evenodd"><mask id="b" fill="#fff"><use xlink:href="#a"/></mask><path d="M20.445 52.426l-5.02-8.725h29.526l-1.253-2.179H14.172L9.15 32.794h29.481l-1.254-2.175H7.897L2.876 21.89H41.72l13.213 22.964c-3.479.122-6.27 2.997-6.27 6.516 0 .358.03.711.086 1.055H20.445zm14.97 2.178h14.106A6.518 6.518 0 0 0 54.08 57.8v8.989l1.932 3.357-4.483 7.792-5.043-8.763H34.822l1.105 2.176h9.305l6.404 11.13-6.801 11.82H38.63v2.176h19.514l3.65 6.346h-3.491l-2.002-3.48h-2.506l2.002 3.48h-3.292l-2.002-3.48H48l2.002 3.48H21.99L34.564 80.97H32.06l-12.574 21.852h-7.04l-2.387-4.151 25.357-44.068zm15.418-3.233c0-2.396 1.942-4.345 4.33-4.345 2.389 0 4.332 1.95 4.332 4.345 0 2.396-1.943 4.346-4.331 4.346-2.389 0-4.33-1.95-4.33-4.346zm5.416 14.834V57.8a6.524 6.524 0 0 0 5.416-6.43 6.535 6.535 0 0 0-3.921-5.985l-8.512-14.794L63.086 6.514h3.177L64.58 9.44h2.505l3.572-6.208 1.889 3.282h8.338l4.416 7.673h7.644l-3.38 5.875a6.478 6.478 0 0 0-6.009-2.918c-3.154.27-5.697 2.866-5.917 6.038a6.484 6.484 0 0 0 1.733 4.91 6.51 6.51 0 0 0 4.39 2.062l-2.93 5.094-3.41-5.926h-9.65l5.954 10.35v22.492l-4.929 8.566 14.816 25.747h5.148l3.65 6.346H89.1l-2.003-3.48h-2.506l2.003 3.48h-3.292l-2.001-3.48h-2.507l2.003 3.48h-3.478l-21.07-36.618zm15.678 3.437l15.364-26.694h13.95l-4.163 7.232h-5.67L80.212 69.642h-8.285zM19.862 54.604H32.91L7.87 98.12a1.11 1.11 0 0 0 .006 1.116l2.999 5.211a1.1 1.1 0 0 0 .957.554h53.723l-6.157-10.7H47.34l6.801-11.82-1.361-2.365 4.484-7.792L76.067 105h20.101l-6.156-10.7h-5.15L71.928 71.82h9.537L92.66 52.356h5.669L105 40.77H86.04L75.895 58.394V39.088l-4.367-7.59h4.639l3.71 6.446c.195.341.561.553.953.553.391 0 .757-.212.954-.552l6.111-10.62a.18.18 0 0 0-.21-.261l-2.231.715c-.028.01-.056.018-.084.026a4.358 4.358 0 0 1-1.833.144 4.236 4.236 0 0 1-2.136-.925 4.334 4.334 0 0 1-1.598-3.692c.144-2.112 1.837-3.839 3.935-4.018a4.32 4.32 0 0 1 4.62 3.415l.487 2.243a.2.2 0 0 0 .368.058l6.513-11.324a1.14 1.14 0 0 0-.374-1.523 1.155 1.155 0 0 0-.627-.173h-8.173l-4.415-7.673h-8.34L71.626.56a1.12 1.12 0 0 0-1.94.003l-2.17 3.773h-5.683L47.978 28.415l-4.662-8.106a1.192 1.192 0 0 0-1.028-.595H1.23c-.236 0-.472.056-.67.187a1.215 1.215 0 0 0-.4 1.627l18.698 32.494c.207.359.593.582 1.004.582z" fill="#FFF" mask="url(#b)"/></g></svg>