<svg width="36" height="43" viewBox="0 0 36 43" xmlns="http://www.w3.org/2000/svg"><title>Fill 1</title><path d="M8.582 10.697l.01-.157c.31-4.932 4.452-8.796 9.433-8.796 5.217 0 9.461 4.211 9.466 9.31l-.005.09c-.005 2.794-1.26 5.423-3.453 7.23l-.417.316c-.095.075-.188.15-.305.23-.21.143-.434.27-.66.399l-.127.074a9.68 9.68 0 0 1-.596.283l-.234.112c-.132.055-.274.102-.412.151l-.29.104c-.058.02-.113.043-.169.06-.108.033-.22.058-.33.085l-.35.09a3.88 3.88 0 0 1-.217.055c-.118.023-.237.038-.356.055l-.333.048c-.08.014-.162.03-.252.038-.294.03-.587.047-.887.05l-.083-.002a9.47 9.47 0 0 1-2.812-.423c-.08-.024-.155-.055-.232-.084l-.33-.12a4.539 4.539 0 0 1-.304-.111c-3.509-1.474-5.777-4.87-5.777-8.651 0-.147.01-.293.022-.436zm5.073 10.693c.13.054.268.102.403.15l.287.104c.11.04.22.082.333.117a11.19 11.19 0 0 0 3.259.504l.089.003c.38 0 .764-.02 1.131-.058.128-.013.25-.033.376-.054l.274-.04c.155-.021.31-.043.471-.074.111-.023.219-.052.326-.08l.3-.078c.15-.035.298-.07.445-.116.09-.03.18-.062.27-.095l.24-.086c.173-.059.348-.12.522-.193.067-.029.133-.06.199-.091l.077-.039c.24-.105.477-.214.71-.34l.154-.09c.264-.149.527-.302.793-.482a6.08 6.08 0 0 0 .4-.299l.45-.347c2.588-2.126 4.076-5.245 4.076-8.481l.005-.092C29.245 4.994 24.212 0 18.025 0 12.119 0 7.208 4.581 6.84 10.432l-.01.144a7.164 7.164 0 0 0-.025.557c-.002 4.484 2.687 8.509 6.851 10.257zM1.76 41.256c.075-6.142 3.734-11.777 9.314-14.371l.178-.07.02-.02a16.55 16.55 0 0 1 1.346-.538l.145-.051c.25-.086.496-.164.754-.237a15.128 15.128 0 0 1 1.491-.353c.138-.024.276-.051.417-.073l.068-.011c.25-.04.503-.076.754-.103l.575-.05a15.536 15.536 0 0 1 2.344 0l.56.046c.138.016.277.035.444.058l.201.03c.21.029.421.065.632.105l.098.017c.119.022.236.045.349.068.345.076.685.164 1.024.262a14.662 14.662 0 0 1 1.474.497c.258.1.51.208.761.322l.044.02c5.705 2.597 9.41 8.25 9.485 14.45H1.76v.002zm23.75-16.028l-.11-.05a15.23 15.23 0 0 0-.804-.338 16.652 16.652 0 0 0-1.63-.553 19.75 19.75 0 0 0-1.14-.29 13.775 13.775 0 0 0-.4-.075l-.092-.018a13.434 13.434 0 0 0-.692-.118l-.067-.01-.006-.001-.066-.01a16.733 16.733 0 0 0-.588-.079l-.682-.055a18.745 18.745 0 0 0-2.531.007l-.242.02-.112.009-.283.026c-.258.027-.515.062-.775.103l-.075.01c-.175.029-.352.062-.524.093-.193.035-.382.072-.574.113a18.128 18.128 0 0 0-1.905.535l-.18.065c-.556.194-1.105.417-1.638.662l-.142.068-.003.003C4.02 28.304 0 34.607 0 41.448c0 .158.01.311.02.467L.068 43h35.865l.047-1.073c.01-.159.021-.316.021-.479 0-6.95-4.116-13.308-10.491-16.22z" fill-rule="evenodd"/></svg>