<svg width="216" height="20" viewBox="0 0 216 20" xmlns="http://www.w3.org/2000/svg" xmlns:xlink="http://www.w3.org/1999/xlink"><title>Group</title><defs><path id="a" d="M0 .748h32.181V20H0z"/><path id="c" d="M.044.784H32v19.183H.044z"/></defs><g fill="none" fill-rule="evenodd"><g transform="translate(0 -.748)"><mask id="b" fill="#fff"><use xlink:href="#a"/></mask><path d="M32.136 6.448h-3.58c-.056-.231-.086-.465-.167-.681-.323-.862-1.062-1.363-2.024-1.363-6.856-.004-13.712-.005-20.568 0-1.187 0-2.116.916-2.119 2.053-.003 1.158.926 2.069 2.142 2.069 6.776.005 13.552.007 20.33 0 1.843-.002 3.42.607 4.613 2.029 1.44 1.717 1.814 3.673.981 5.765-.838 2.104-2.432 3.32-4.692 3.626a6.182 6.182 0 0 1-.828.043c-6.764.003-13.527-.018-20.29.01-2.98.014-5.236-2.04-5.782-4.608-.077-.356-.095-.725-.145-1.12h3.53c.226.46.382.897.636 1.265.392.569.985.812 1.674.812 6.83 0 13.66.003 20.488-.004 1.092-.001 1.928-.685 2.144-1.698.186-.88-.316-1.873-1.217-2.256-.36-.154-.79-.207-1.189-.207-6.71-.012-13.422-.015-20.133-.005-1.995.003-3.646-.717-4.803-2.348C-.185 7.968-.369 5.943.661 3.89 1.671 1.88 3.365.79 5.608.777c7-.04 14.001-.033 21.002-.004 2.811.012 5.255 2.326 5.524 5.12.016.17.002.342.002.556" fill="#FFF" mask="url(#b)"/></g><path d="M64.83 11.772l.019-6.065c.034-1.011-.806-2.108-2.052-2.064 0 0-14.607.03-19.893-.004-1.271-.008-2.12 1.047-2.083 2.075l.019 6.058h23.99zm-27.778 7.45V5.545c0-3.009 2.404-5.511 5.409-5.523 6.92-.028 13.843-.028 20.764 0 2.98.013 5.39 2.519 5.392 5.5v13.699h-3.775v-3.759H40.845v3.76h-3.793zm116.995-7.455h23.99v-.458c0-1.858-.049-3.72.02-5.575a2.05 2.05 0 0 0-2.106-2.096c-3.48.046-6.96.016-10.44.016-3.164 0-6.328-.002-9.492.003-1.184.002-1.973.81-1.973 1.992l.001 5.656v.462zm-.005 3.698v3.756h-3.784v-.416l.001-13.29c.001-2.976 2.417-5.48 5.401-5.491 6.921-.028 13.843-.028 20.764 0 2.984.012 5.4 2.514 5.4 5.492v13.702h-3.77v-3.753h-24.012zM77.872 7.78H99.07c.158 0 .317.002.475-.006 1.47-.08 2.38-1.761 1.639-3.031-.445-.764-1.106-1.097-1.997-1.096-6.97.012-21.316.007-21.316.007V7.78zm-.028 3.646v7.8H74.1V.009S90.974.007 99.212.01c3.089.002 5.423 1.987 5.829 5.017.21 1.565-.19 3.006-1.195 4.253-.083.102-.167.202-.246.297.007.038.004.069.019.085 1.073 1.218 1.508 2.645 1.475 4.258l-.008 5.29h-3.79s.002-3.927 0-5.68c0-1.09-.746-1.932-1.834-2.071a3.73 3.73 0 0 0-.472-.032l-21.146-.002zm36.47 7.797h-3.761V.01l5.47-.007c.26-.002.4.093.548.291 3.619 4.911 11.224 15.203 11.224 15.203S135.36 5.294 138.992.36c.194-.264.389-.36.715-.358l5.36.008v19.21h-3.74V3.65l-11.33 15.143c-.2.267-.397.39-.744.38a65.083 65.083 0 0 0-2.964-.004c-.282.005-.452-.083-.62-.308l-11.356-15.2v15.562z" fill="#FFF"/><g transform="translate(184 -.748)"><mask id="d" fill="#fff"><use xlink:href="#c"/></mask><path fill="#FFF" mask="url(#d)" d="M32 4.392H17.925v15.575H14.14V4.416H.043V.784H32z"/></g></g></svg>