<svg width="74" height="42" viewBox="0 0 74 42" xmlns="http://www.w3.org/2000/svg" xmlns:xlink="http://www.w3.org/1999/xlink"><title>Group</title><defs><path id="a" d="M0 .53h73.195V42H0z"/></defs><g fill="none" fill-rule="evenodd"><mask id="b" fill="#fff"><use xlink:href="#a"/></mask><path d="M70.851 30.001a3.273 3.273 0 0 1-3.264 3.275h-3.606c-.568-3.604-3.659-6.38-7.402-6.38-3.743 0-6.835 2.776-7.405 6.38H24.606c-.568-3.604-3.658-6.38-7.403-6.38-3.744 0-6.834 2.776-7.4 6.38H5.598c-1.799 0-3.251-1.47-3.251-3.275V6.624c0-2.06 1.658-3.737 3.708-3.737h48.278a5.34 5.34 0 0 1 4.842 3.116l4.317 9.366c.057.126.138.24.226.344l5.267 5.244a6.436 6.436 0 0 1 1.866 4.492v4.552zM56.58 39.644a5.18 5.18 0 0 1-5.175-5.194c0-2.864 2.313-5.197 5.175-5.197 2.847 0 5.172 2.333 5.172 5.197 0 2.872-2.325 5.194-5.172 5.194zm-39.376 0c-2.85 0-5.174-2.322-5.174-5.194 0-2.864 2.323-5.197 5.174-5.197 2.852 0 5.175 2.333 5.175 5.197 0 2.872-2.323 5.194-5.175 5.194zM70.63 19.288l-5.104-5.103-4.222-9.17A7.692 7.692 0 0 0 54.333.53H6.055C2.713.53 0 3.267 0 6.624V30c0 3.105 2.516 5.632 5.598 5.632h4.205c.57 3.605 3.66 6.367 7.4 6.367s6.83-2.77 7.403-6.367h24.57c.57 3.605 3.663 6.367 7.403 6.367 3.74 0 6.829-2.77 7.4-6.367h3.608c3.092 0 5.608-2.527 5.608-5.632v-4.55a8.768 8.768 0 0 0-2.564-6.16z" fill="#858585" mask="url(#b)"/><path d="M50.517 17.415h-34.13c-.65 0-1.182.46-1.182 1.02 0 .568.532 1.028 1.183 1.028h34.129c.647 0 1.182-.46 1.182-1.027 0-.56-.535-1.021-1.182-1.021" fill="#858585"/></g></svg>