<svg width="17" height="14" viewBox="0 0 17 14" xmlns="http://www.w3.org/2000/svg" xmlns:xlink="http://www.w3.org/1999/xlink"><title>Group 12</title><defs><path id="a" d="M.102.938h16.301v13.25H.102z"/></defs><g transform="translate(0 -.71)" fill="none" fill-rule="evenodd"><mask id="b" fill="#fff"><use xlink:href="#a"/></mask><path d="M5.229 14.187c6.15 0 9.516-5.097 9.516-9.516 0-.145-.003-.289-.01-.432a6.836 6.836 0 0 0 1.669-1.732c-.6.266-1.244.446-1.921.526a3.358 3.358 0 0 0 1.47-1.85 6.72 6.72 0 0 1-2.123.812 3.346 3.346 0 0 0-5.7 3.05 9.49 9.49 0 0 1-6.893-3.494 3.341 3.341 0 0 0 1.035 4.465 3.33 3.33 0 0 1-1.515-.418l-.001.042A3.347 3.347 0 0 0 3.44 8.92a3.376 3.376 0 0 1-1.511.056A3.347 3.347 0 0 0 5.053 11.3 6.704 6.704 0 0 1 .9 12.731c-.271 0-.536-.015-.798-.046a9.474 9.474 0 0 0 5.127 1.502" fill="#FFF" mask="url(#b)"/></g></svg>