<svg width="54" height="47" viewBox="0 0 54 47" xmlns="http://www.w3.org/2000/svg" xmlns:xlink="http://www.w3.org/1999/xlink"><title>Group</title><defs><path id="a" d="M0 .186h53.04V37H0z"/><path id="c" d="M0 .102h53.04v21.781H0z"/></defs><g fill="none" fill-rule="evenodd"><g transform="translate(0 10)"><mask id="b" fill="#fff"><use xlink:href="#a"/></mask><path d="M50.815 34.707h-6.628V19.693l6.628 5.15v9.864zm-48.59-9.865l6.629-5.15v15.015H2.226v-9.865zm27.724 9.865v-6.925c0-.633-.5-1.146-1.112-1.146h-4.632c-.615 0-1.114.513-1.114 1.146v6.925H11.078v-19.94l15.441-12 15.443 12v19.94H29.949zm-4.633 0h2.407v-5.779h-2.407v5.78zm27.28-11.351l-8.41-6.534v-2.625c0-.361-.163-.7-.442-.916L27.189.418a1.085 1.085 0 0 0-1.34 0L9.297 13.28a1.156 1.156 0 0 0-.442.916v2.625l-8.41 6.534a1.16 1.16 0 0 0-.445.916v11.582C0 36.488.5 37 1.113 37H51.93c.614 0 1.11-.512 1.11-1.146V24.272c0-.36-.163-.7-.442-.916z" fill="#858585" mask="url(#b)"/></g><mask id="d" fill="#fff"><use xlink:href="#c"/></mask><path d="M1.782 21.654l24.737-19 24.738 19a1.099 1.099 0 0 0 1.558-.222c.37-.499.273-1.21-.217-1.588L27.19.33a1.095 1.095 0 0 0-1.34 0L.444 19.844a1.148 1.148 0 0 0-.219 1.589 1.1 1.1 0 0 0 1.558.221" fill="#858585" mask="url(#d)"/></g></svg>